<svg id="Layer_1" data-name="Layer 1" xmlns="http://www.w3.org/2000/svg" xmlns:xlink="http://www.w3.org/1999/xlink" width="897" height="643" viewBox="0 0 897 643"><defs><clipPath id="clip-path"><rect x="-559" y="-137" width="1561" height="780.09" style="fill:none"/></clipPath><clipPath id="clip-path-2"><path d="M209.8,562.13c10.61,0,30-22.3,41.47-40.28l19.9,9.46s-20.35,85.35-6.91,111.13H86c9.9-30.09-.89-115-.89-115s16.22-6.61,25.22-9.79c4.07,21.55,18.12,46.59,29.43,46.59S199.19,562.13,209.8,562.13Z" style="fill:none"/></clipPath><clipPath id="clip-path-3"><path d="M203.59,423.62l1.61,76.66s58.26,27.41,66,31,13.21,4.56,23.7,11.46,6.73,99.67,6.73,99.67H47.54s3.82-79,6.72-86.49S69.36,534.41,78,530.55s72.29-28,72.29-28L161,435.92Z" style="fill:none"/></clipPath></defs><title>Artboard 6</title><g style="clip-path:url(#clip-path)"><line x1="550.16" y1="175.97" x2="551.93" y2="185.97" style="fill:none;stroke:#00d1bd;stroke-linecap:round;stroke-miterlimit:10;stroke-width:4.6394305229187px"/><line x1="731.4" y1="193.99" x2="733.17" y2="203.98" style="fill:none;stroke:#00d1bd;stroke-linecap:round;stroke-miterlimit:10;stroke-width:4.6394305229187px"/><line x1="631.57" y1="257.9" x2="640.08" y2="263.44" style="fill:none;stroke:#00d1bd;stroke-linecap:round;stroke-miterlimit:10;stroke-width:4.6394305229187px"/><line x1="634.18" y1="440.44" x2="642.69" y2="445.99" style="fill:none;stroke:#00d1bd;stroke-linecap:round;stroke-miterlimit:10;stroke-width:4.6394305229187px"/><line x1="681" y1="240.14" x2="689.5" y2="245.69" style="fill:none;stroke:#00d1bd;stroke-linecap:round;stroke-miterlimit:10;stroke-width:4.6394305229187px"/><line x1="561.62" y1="264.59" x2="563.39" y2="274.59" style="fill:none;stroke:#00d1bd;stroke-linecap:round;stroke-miterlimit:10;stroke-width:4.6394305229187px"/><line x1="446" y1="489.38" x2="447.77" y2="499.38" style="fill:none;stroke:#00d1bd;stroke-linecap:round;stroke-miterlimit:10;stroke-width:4.6394305229187px"/><line x1="488.3" y1="350.32" x2="498.45" y2="350.49" style="fill:none;stroke:#00d1bd;stroke-linecap:round;stroke-miterlimit:10;stroke-width:4.6394305229187px"/><line x1="479.24" y1="214.73" x2="481.01" y2="224.72" style="fill:none;stroke:#00d1bd;stroke-linecap:round;stroke-miterlimit:10;stroke-width:4.6394305229187px"/><line x1="404.28" y1="45.76" x2="406.05" y2="55.76" style="fill:none;stroke:#00d1bd;stroke-linecap:round;stroke-miterlimit:10;stroke-width:4.6394305229187px"/><line x1="571.25" y1="303.86" x2="573.02" y2="313.85" style="fill:none;stroke:#00d1bd;stroke-linecap:round;stroke-miterlimit:10;stroke-width:4.6394305229187px"/><line x1="581.31" y1="240.76" x2="571.22" y2="241.94" style="fill:none;stroke:#380089;stroke-linecap:round;stroke-miterlimit:10;stroke-width:4.6394305229187px"/><line x1="641.81" y1="196.17" x2="635.05" y2="186.81" style="fill:none;stroke:#fff;stroke-linecap:round;stroke-miterlimit:10;stroke-width:4.6394305229187px"/><line x1="338.42" y1="265.66" x2="331.66" y2="256.3" style="fill:none;stroke:#fff;stroke-linecap:round;stroke-miterlimit:10;stroke-width:4.6394305229187px"/><line x1="580.91" y1="138.81" x2="574.15" y2="129.45" style="fill:none;stroke:#fff;stroke-linecap:round;stroke-miterlimit:10;stroke-width:4.6394305229187px"/><line x1="370.05" y1="97.42" x2="363.29" y2="88.06" style="fill:none;stroke:#fff;stroke-linecap:round;stroke-miterlimit:10;stroke-width:4.6394305229187px"/><line x1="645.46" y1="163.02" x2="639.06" y2="170.9" style="fill:none;stroke:#00d1bd;stroke-linecap:round;stroke-miterlimit:10;stroke-width:4.6394305229187px"/><line x1="356" y1="174.7" x2="347.54" y2="180.32" style="fill:none;stroke:#00d1bd;stroke-linecap:round;stroke-miterlimit:10;stroke-width:4.6394305229187px"/><line x1="569.21" y1="192.07" x2="579.59" y2="191.84" style="fill:none;stroke:#7f50ff;stroke-linecap:round;stroke-miterlimit:10;stroke-width:4.6394305229187px"/><line x1="458.43" y1="179.18" x2="468.81" y2="178.95" style="fill:none;stroke:#7f50ff;stroke-linecap:round;stroke-miterlimit:10;stroke-width:4.6394305229187px"/><line x1="395.67" y1="431.92" x2="406.05" y2="431.68" style="fill:none;stroke:#7f50ff;stroke-linecap:round;stroke-miterlimit:10;stroke-width:4.6394305229187px"/><line x1="592.46" y1="92.61" x2="602.84" y2="92.37" style="fill:none;stroke:#7f50ff;stroke-linecap:round;stroke-miterlimit:10;stroke-width:4.6394305229187px"/><line x1="610.49" y1="226.57" x2="618.79" y2="232.43" style="fill:none;stroke:#7f50ff;stroke-linecap:round;stroke-miterlimit:10;stroke-width:4.6394305229187px"/><line x1="559.37" y1="219.87" x2="555.67" y2="232.36" style="fill:none;stroke:#7f50ff;stroke-linecap:round;stroke-miterlimit:10;stroke-width:4.6394305229187px"/><line x1="521.36" y1="303.36" x2="517.66" y2="315.85" style="fill:none;stroke:#7f50ff;stroke-linecap:round;stroke-miterlimit:10;stroke-width:4.6394305229187px"/><line x1="427.9" y1="136.45" x2="415.73" y2="131.81" style="fill:none;stroke:#7f50ff;stroke-linecap:round;stroke-miterlimit:10;stroke-width:4.6394305229187px"/><line x1="741.95" y1="237.44" x2="738.25" y2="249.92" style="fill:none;stroke:#7f50ff;stroke-linecap:round;stroke-miterlimit:10;stroke-width:4.6394305229187px"/><line x1="685.73" y1="203.48" x2="682.03" y2="215.97" style="fill:none;stroke:#7f50ff;stroke-linecap:round;stroke-miterlimit:10;stroke-width:4.6394305229187px"/><line x1="609.13" y1="142.88" x2="605.43" y2="155.36" style="fill:none;stroke:#380089;stroke-linecap:round;stroke-miterlimit:10;stroke-width:4.6394305229187px"/><line x1="384.78" y1="279.06" x2="381.08" y2="291.54" style="fill:none;stroke:#380089;stroke-linecap:round;stroke-miterlimit:10;stroke-width:4.6394305229187px"/><line x1="540.21" y1="218.6" x2="546.61" y2="210.72" style="fill:none;stroke:#e6d821;stroke-linecap:round;stroke-miterlimit:10;stroke-width:4.6394305229187px"/><line x1="417.46" y1="191.47" x2="423.86" y2="183.59" style="fill:none;stroke:#e6d821;stroke-linecap:round;stroke-miterlimit:10;stroke-width:4.6394305229187px"/><line x1="544.36" y1="84.51" x2="550.76" y2="76.62" style="fill:none;stroke:#e6d821;stroke-linecap:round;stroke-miterlimit:10;stroke-width:4.6394305229187px"/><line x1="674.82" y1="279.1" x2="681.22" y2="271.21" style="fill:none;stroke:#e6d821;stroke-linecap:round;stroke-miterlimit:10;stroke-width:4.6394305229187px"/><line x1="594.8" y1="239.53" x2="594.25" y2="249.67" style="fill:none;stroke:#f0f;stroke-linecap:round;stroke-miterlimit:10;stroke-width:4.6394305229187px"/><line x1="609.18" y1="185.72" x2="601.66" y2="192.54" style="fill:none;stroke:#f0f;stroke-linecap:round;stroke-miterlimit:10;stroke-width:4.6394305229187px"/><line x1="491.86" y1="126.9" x2="484.34" y2="133.72" style="fill:none;stroke:#f0f;stroke-linecap:round;stroke-miterlimit:10;stroke-width:4.6394305229187px"/><line x1="271.57" y1="184.54" x2="264.05" y2="191.36" style="fill:none;stroke:#f0f;stroke-linecap:round;stroke-miterlimit:10;stroke-width:4.6394305229187px"/><line x1="763.77" y1="214.55" x2="756.25" y2="221.37" style="fill:none;stroke:#f0f;stroke-linecap:round;stroke-miterlimit:10;stroke-width:4.6394305229187px"/><line x1="648.63" y1="240.34" x2="642.08" y2="232.58" style="fill:none;stroke:#f0f;stroke-linecap:round;stroke-miterlimit:10;stroke-width:4.6394305229187px"/><line x1="436.62" y1="245.18" x2="430.07" y2="237.42" style="fill:none;stroke:#f0f;stroke-linecap:round;stroke-miterlimit:10;stroke-width:4.6394305229187px"/><line x1="359.45" y1="384.08" x2="352.9" y2="376.32" style="fill:none;stroke:#f0f;stroke-linecap:round;stroke-miterlimit:10;stroke-width:4.6394305229187px"/><line x1="540.15" y1="261.33" x2="532.63" y2="268.15" style="fill:none;stroke:#f0f;stroke-linecap:round;stroke-miterlimit:10;stroke-width:4.6394305229187px"/><line x1="713.11" y1="263.28" x2="705.59" y2="270.1" style="fill:none;stroke:#f0f;stroke-linecap:round;stroke-miterlimit:10;stroke-width:4.6394305229187px"/><line x1="509.47" y1="238.4" x2="506.31" y2="248.05" style="fill:none;stroke:#380089;stroke-linecap:round;stroke-miterlimit:10;stroke-width:4.6394305229187px"/><line x1="671.68" y1="188.23" x2="661.55" y2="188.85" style="fill:none;stroke:#380089;stroke-linecap:round;stroke-miterlimit:10;stroke-width:4.6394305229187px"/><line x1="392.9" y1="518.39" x2="390.53" y2="535.38" style="fill:none;stroke:#380089;stroke-linecap:round;stroke-miterlimit:10;stroke-width:4.6394305229187px"/><line x1="539.35" y1="141.12" x2="529.21" y2="141.74" style="fill:none;stroke:#380089;stroke-linecap:round;stroke-miterlimit:10;stroke-width:4.6394305229187px"/><line x1="592.83" y1="171.14" x2="601.99" y2="175.52" style="fill:none;stroke:#e6d821;stroke-linecap:round;stroke-miterlimit:10;stroke-width:4.6394305229187px"/><line x1="292.85" y1="90.55" x2="302.01" y2="94.93" style="fill:none;stroke:#e6d821;stroke-linecap:round;stroke-miterlimit:10;stroke-width:4.6394305229187px"/><line x1="621.05" y1="199.53" x2="630.21" y2="203.91" style="fill:none;stroke:#e6d821;stroke-linecap:round;stroke-miterlimit:10;stroke-width:4.6394305229187px"/><line x1="708.38" y1="214.86" x2="717.54" y2="219.24" style="fill:none;stroke:#e6d821;stroke-linecap:round;stroke-miterlimit:10;stroke-width:4.6394305229187px"/><line x1="546.15" y1="288.84" x2="555.3" y2="293.23" style="fill:none;stroke:#e6d821;stroke-linecap:round;stroke-miterlimit:10;stroke-width:4.6394305229187px"/><line x1="472.15" y1="285.69" x2="481.31" y2="290.07" style="fill:none;stroke:#e6d821;stroke-linecap:round;stroke-miterlimit:10;stroke-width:4.6394305229187px"/><line x1="407.09" y1="354.07" x2="416.25" y2="358.45" style="fill:none;stroke:#e6d821;stroke-linecap:round;stroke-miterlimit:10;stroke-width:4.6394305229187px"/><line x1="589.48" y1="212.96" x2="588.34" y2="223.05" style="fill:none;stroke:#fff;stroke-linecap:round;stroke-miterlimit:10;stroke-width:4.6394305229187px"/><line x1="349.48" y1="469.81" x2="348.34" y2="479.9" style="fill:none;stroke:#fff;stroke-linecap:round;stroke-miterlimit:10;stroke-width:4.6394305229187px"/><line x1="506.29" y1="172.81" x2="505.15" y2="182.89" style="fill:none;stroke:#fff;stroke-linecap:round;stroke-miterlimit:10;stroke-width:4.6394305229187px"/><line x1="653.43" y1="219.52" x2="644.37" y2="224.12" style="fill:none;stroke:#fff;stroke-linecap:round;stroke-miterlimit:10;stroke-width:4.6394305229187px"/><line x1="577.53" y1="483.04" x2="568.48" y2="487.63" style="fill:none;stroke:#fff;stroke-linecap:round;stroke-miterlimit:10;stroke-width:4.6394305229187px"/><line x1="444.07" y1="293.77" x2="435.02" y2="298.36" style="fill:none;stroke:#fff;stroke-linecap:round;stroke-miterlimit:10;stroke-width:4.6394305229187px"/><line x1="719.75" y1="234.01" x2="710.7" y2="238.61" style="fill:none;stroke:#fff;stroke-linecap:round;stroke-miterlimit:10;stroke-width:4.6394305229187px"/><line x1="588.1" y1="270.74" x2="596.28" y2="278.63" style="fill:none;stroke:#fff;stroke-linecap:round;stroke-miterlimit:10;stroke-width:4.6394305229187px"/><line x1="508.14" y1="412.93" x2="516.32" y2="420.82" style="fill:none;stroke:#fff;stroke-linecap:round;stroke-miterlimit:10;stroke-width:4.6394305229187px"/><path d="M720.29,193.86a32.7,32.7,0,0,0,.38,16.09c1.52,5.29,4.59,9.2,7.77,13.54,3.39,4.63,2.42,8.19-.32,12.93a59,59,0,0,0-3.64,7.26,52.64,52.64,0,0,0-3.86,18.91c-.13,7.41,2.9,15,.24,22.18-2.22,6-5.8,11.39-8,17.44A90,90,0,0,0,708.25,342c.2,1.9,3.2,1.92,3,0a87.78,87.78,0,0,1,5.13-40.6c2.32-6.07,6.6-11.72,8.13-18s-.76-12.71-.89-19a49.25,49.25,0,0,1,4.29-21.06c2.1-4.66,6.49-9.36,6-14.78-.45-5.07-5-8.51-7.42-12.61a29,29,0,0,1-3.31-21.21c.41-1.88-2.48-2.69-2.89-.8Z" style="fill:#fff"/><path d="M812.07,98.05c0,49-39,88.71-87.2,88.71s-87.2-39.72-87.2-88.71,25.88-92.71,87.2-92.71S812.07,49.06,812.07,98.05Z" style="fill:#ff9eff"/><path d="M663.85,86.75Q662.12,97,660.4,106.5c-.21,1.15-.87,1.87-1.68,1.69a2.64,2.64,0,0,1-1.65-2.18c-1.71-9-3.42-17.46-5.12-25.2a3.19,3.19,0,0,1,1.65-3.59c1-.22,1.5.67,1.65,1.4q1.75,9,3.51,18.9,1.71-9.62,3.42-20.11A2.71,2.71,0,0,1,663.85,75c.75-.15,1.47.52,1.69,1.8q1.72,10.29,3.44,21.35,1.76-10.9,3.53-22.55c.15-.94.7-2.28,1.66-2.44s1.75,1.17,1.75,3a5.31,5.31,0,0,1-.09,1c-1.72,10.86-3.45,21.28-5.17,31.19-.21,1.2-.87,2-1.66,1.84s-1.48-1.2-1.69-2.52Q665.58,96.83,663.85,86.75Z" style="fill:#380089"/><path d="M682.58,89l5.73-.11c.85,0,1.55,1.38,1.55,3.09s-.7,3.11-1.55,3.09l-5.73-.1v10.78q4,.36,8,.66c.88.06,1.58,1.53,1.58,3.33s-.7,3.15-1.58,3.06q-4.91-.52-9.8-1.18c-1-.14-1.76-1.73-1.76-3.56V76.22c0-1.82.79-3.42,1.76-3.56q4.73-.64,9.47-1.15c.88-.1,1.58,1.25,1.58,3s-.7,3.26-1.58,3.33q-3.86.28-7.71.63Z" style="fill:#380089"/><path d="M706.45,107c1,0,1.71,1.63,1.71,3.6s-.7,3.5-1.71,3.44q-4.51-.25-9-.63c-1-.09-1.73-1.66-1.73-3.67V74.13c0-2,.79-3.72,1.76-3.8s1.77,1.51,1.77,3.55V106.7Q702.84,106.9,706.45,107Z" style="fill:#380089"/><path d="M710.63,92.17c0-15.55,3.48-23.26,9.55-23.38,3.69-.05,6.11,3.18,7.36,7.18a7.16,7.16,0,0,1,.34,2.2c0,1.93-.73,3.53-1.65,3.53-.43,0-.86-.4-1.25-1.34-1.25-3-2.56-4.67-4.79-4.65-4.06.05-5.89,5.54-5.89,16.45,0,11.57,1.83,16.33,5.89,16.39,2.26,0,3.48-1.11,4.95-4.38.49-1.07.89-1.47,1.31-1.47.92,0,1.65,1.59,1.65,3.59a6.18,6.18,0,0,1-.3,2c-1.47,4.28-4.34,7.23-7.6,7.18C714.11,115.37,710.63,108.25,710.63,92.17Z" style="fill:#380089"/><path d="M730.92,92.17c0-15.77,3.51-23.33,9.67-23s9.66,8,9.66,23c0,14.83-3.5,22.56-9.66,22.94S730.92,107.74,730.92,92.17Zm3.66,0c0,10.94,2,16.27,6,16.12s6-5.51,6-16.12-2-16-6-16.18S734.59,81.17,734.59,92.17Z" style="fill:#380089"/><path d="M762,104.35q-2.38-8.24-4.77-16.94v22.5c0,1.91-.79,3.6-1.73,3.7s-1.73-1.46-1.73-3.42V74.08c0-1.95.79-3.51,1.73-3.42.76.08,1.25,1,1.55,2.13,2.15,8,4.3,15.85,6.44,23.37,2.14-7.62,4.29-15,6.43-21.93.3-1,.79-1.72,1.54-1.6.94.14,1.72,1.72,1.72,3.45v32.11c0,1.73-.79,3.3-1.72,3.45s-1.73-1.23-1.73-3V87.75q-2.38,7.92-4.76,16.38c-.3,1.09-.88,1.73-1.49,1.78S762.27,105.41,762,104.35Z" style="fill:#380089"/><path d="M781,89.36l5.69.17c.84,0,1.53,1.16,1.53,2.49s-.69,2.46-1.53,2.49l-5.69.15v9.57q4-.49,8-1c.87-.12,1.56.85,1.56,2.2s-.69,2.56-1.56,2.74q-4.85,1-9.72,1.82c-1,.17-1.75-1.1-1.75-2.83v-30c0-1.73.78-3,1.75-2.82q4.71.81,9.39,1.75c.87.18,1.56,1.4,1.56,2.75s-.69,2.33-1.56,2.21q-3.82-.53-7.64-1Z" style="fill:#380089"/><path d="M793.44,104.64c0-2,.72-3.1,2-3.27s1.94.65,1.94,2.54-.69,2.9-1.94,3.19S793.44,106.62,793.44,104.64ZM797.24,80q-.28,8.34-.57,16.84c0,.94-.42,1.66-1.26,1.74S794.13,98,794.1,97q-.27-8.8-.54-17.74c-.06-1.76.66-2.36,1.86-2.08S797.3,78.33,797.24,80Z" style="fill:#380089"/><polygon points="714.06 197.94 727.95 197.94 725.34 186.76 716.95 186.76 714.06 197.94" style="fill:#e283e5"/><path d="M783.74,50.43c-8.93-.74-21.22,2.94-21.22,2.94s-3-13.77-19.73-23.78c0,0,10.44-1.95,16.39-1.49C767.74,30.7,778.54,41,783.74,50.43Z" style="fill:#ffb8ff"/><path d="M507.8,294.53c41.63,0,77.9-23.35,97-57.91a114.26,114.26,0,0,1,39.31,86.6c0,62.73-49.82,113.58-111.27,113.58S421.54,385.94,421.54,323.21a114.83,114.83,0,0,1,14.29-55.66A109.48,109.48,0,0,0,507.8,294.53Z" style="fill:#603813"/><path d="M492.31,419.22l-1.69,80.18s-53.83,35.89-61.9,39.67-13.81,4.77-24.78,12-14.13,97-14.13,97H655.52s-2.28-74.48-5.31-82.29-15.8-22.53-24.86-26.57S548,501.78,548,501.78l-11.15-69.7Z" style="fill:#d6b37d"/><circle cx="517.55" cy="345.2" r="92.75" style="fill:#d6b37d"/><circle cx="511.09" cy="338.74" r="86.3" style="fill:#e8cfa2"/><path d="M538.77,360.12a29.4,29.4,0,1,1-58.8,0Z" style="fill:#d6b37d"/><path d="M489.61,472.15l-6.18,24.73s-46.65,38.41-54.71,42.18-13.81,4.77-24.78,12-20.95,97-20.95,97H664.5s-11.26-74.48-14.29-82.29-15.8-22.53-24.86-26.57-72.15-37-72.15-37L544.59,471s-14.33,6.75-28.14,6.75S489.61,472.15,489.61,472.15Z" style="fill:#004c3d"/><path d="M509.38,279.13c-27.38-1.86-67.73,8.38-73.54-11.58,19.08-34.56,55.35-57.91,97-57.91a109.49,109.49,0,0,1,72,27C594.29,280.74,558.7,282.47,509.38,279.13Z" style="fill:#754c24"/><circle cx="470.3" cy="316.68" r="8.57" style="fill:#242778"/><circle cx="542.46" cy="316.68" r="8.57" style="fill:#242778"/><path d="M518.38,307.64a23.31,23.31,0,0,0-22.6.18" style="fill:none;stroke:#000;stroke-miterlimit:10;stroke-width:6.48840166073261px"/><path d="M542.46,294a23.28,23.28,0,1,1-23.28,23.28A23.28,23.28,0,0,1,542.46,294m0-6.49a29.77,29.77,0,1,0,29.77,29.77,29.8,29.8,0,0,0-29.77-29.77Z"/><path d="M471.2,294a23.28,23.28,0,1,1-23.28,23.28A23.28,23.28,0,0,1,471.2,294m0-6.49A29.77,29.77,0,1,0,501,317.27,29.8,29.8,0,0,0,471.2,287.5Z"/><line x1="568.97" y1="317.27" x2="611.92" y2="317.27" style="fill:none;stroke:#000;stroke-linecap:round;stroke-miterlimit:10;stroke-width:6.48840166073261px"/><line x1="424.79" y1="317.27" x2="443.33" y2="317.27" style="fill:none;stroke:#000;stroke-linecap:round;stroke-miterlimit:10;stroke-width:6.48840166073261px"/><circle cx="606.35" cy="329.62" r="18" style="fill:#e8cfa2"/><path d="M607.3,343a13.33,13.33,0,1,0,0-26.66Z" style="fill:#d6b37d"/><path d="M607.19,336.59a6.71,6.71,0,0,0,0-13.41Z" style="fill:#e8cfa2"/><circle cx="754.76" cy="419.35" r="124.58" style="fill:#f1e321"/><path d="M768.95,460.64s3.75,58.64,7.58,62.65c4,4.21,50.2,28.15,57.83,31.72,14,6.54,28.95,17.92,34.51,30.16,7.56,16.64,28.12,58,28.12,58H849.9l-9.71-15.4-7,15.4h-203s14.21-43.84,21.4-58c6.55-12.86,17.33-29.22,31.82-37.09,8.25-4.48,43.94-21.81,45.13-26s5.69-61.47,5.69-61.47Z" style="fill:#8a6e63"/><path d="M730.84,223.31A102,102,0,0,1,615.17,371.16,109.71,109.71,0,1,0,730.84,223.31Z" style="fill:#f1e321"/><path d="M730.48,505.31a81.62,81.62,0,0,0,41.92-4c-2-18.09-3.45-40.65-3.45-40.65H734.26S732.19,487,730.48,505.31Z" style="fill:#604d49"/><circle cx="727.36" cy="385.32" r="87.73" style="fill:#755d56"/><circle cx="721.25" cy="379.22" r="81.63" style="fill:#8a6e63"/><circle cx="757.29" cy="355.53" r="10.94" style="fill:#3d2722"/><circle cx="675.4" cy="355.53" r="10.94" style="fill:#3d2722"/><path d="M743.59,390.08a27.81,27.81,0,0,1-55.61,0Z" style="fill:#e7e9eb"/><path d="M743.59,272.69a101.47,101.47,0,0,0-12.75-49.38A109.55,109.55,0,0,0,608,332.22a109.41,109.41,0,0,0,7.14,38.94,102,102,0,0,0,128.42-98.47Z" style="fill:#f1e321"/><circle cx="804.86" cy="380.58" r="22.6" style="fill:#8a6e63"/><path d="M834.36,555c14,6.54,28.95,17.92,34.51,30.16,7.56,16.64,28.12,58,28.12,58H849.9l-9.71-15.4-7,15.4h-203s14.21-43.84,21.4-58c6.55-12.86,17.33-29.22,31.82-37.09C691.68,543.67,826.72,551.45,834.36,555Z" style="fill:#ff9eff"/><polygon points="291.07 209.45 199.44 284.15 256.37 322.11 291.07 209.45" style="fill:#1f2733"/><polygon points="228.96 165.94 177.84 272.54 245.51 282.66 228.96 165.94" style="fill:#1f2733"/><polygon points="163.68 165.53 142.33 281.81 210.29 273.81 163.68 165.53" style="fill:#1f2733"/><polygon points="109.06 177.44 110.46 295.66 175.61 274.75 109.06 177.44" style="fill:#1f2733"/><polygon points="47.58 229.62 107.9 331.3 153.87 280.61 47.58 229.62" style="fill:#1f2733"/><polygon points="6.77 319.86 117.69 360.78 121.43 292.45 6.77 319.86" style="fill:#1f2733"/><polygon points="6.85 392.03 122.05 401.76 95.74 338.59 6.85 392.03" style="fill:#1f2733"/><polygon points="40.15 458.19 148.54 417.98 97.85 372 40.15 458.19" style="fill:#1f2733"/><circle cx="262.82" cy="357.24" r="15.91" style="fill:#d1a686"/><circle cx="266.72" cy="375.1" r="4.44" style="fill:none;stroke:#000;stroke-miterlimit:10"/><circle cx="266.72" cy="379.54" r="4.44" style="fill:none;stroke:#000;stroke-miterlimit:10"/><circle cx="266.72" cy="383.98" r="4.44" style="fill:none;stroke:#000;stroke-miterlimit:10"/><circle cx="266.72" cy="388.43" r="4.44" style="fill:none;stroke:#000;stroke-miterlimit:10"/><circle cx="266.72" cy="392.87" r="4.44" style="fill:none;stroke:#000;stroke-miterlimit:10"/><circle cx="266.72" cy="397.32" r="4.44" style="fill:none;stroke:#000;stroke-miterlimit:10"/><circle cx="266.72" cy="401.76" r="4.44" style="fill:none;stroke:#000;stroke-miterlimit:10"/><circle cx="266.72" cy="406.21" r="4.44" style="fill:none;stroke:#000;stroke-miterlimit:10"/><circle cx="266.72" cy="410.65" r="4.44" style="fill:none;stroke:#000;stroke-miterlimit:10"/><circle cx="266.72" cy="415.1" r="4.44" style="fill:none;stroke:#000;stroke-miterlimit:10"/><circle cx="266.72" cy="419.54" r="4.44" style="fill:none;stroke:#000;stroke-miterlimit:10"/><circle cx="266.72" cy="423.98" r="4.44" style="fill:none;stroke:#000;stroke-miterlimit:10"/><circle cx="266.72" cy="428.43" r="4.44" style="fill:none;stroke:#000;stroke-miterlimit:10"/><path d="M203.59,423.62l1.61,76.66s58.26,27.41,66,31,13.21,4.56,23.7,11.46,6.73,99.67,6.73,99.67H47.54s3.82-79,6.72-86.49S69.36,534.41,78,530.55s72.29-28,72.29-28L161,435.92Z" style="fill:#d1a686"/><path d="M155.87,467.8a89.11,89.11,0,0,0,48.64-.42l-.92-43.76L161,435.92Z" style="fill:#a87f63"/><circle cx="179.46" cy="352.85" r="88.68" style="fill:#bc9275"/><circle cx="185.63" cy="346.68" r="82.51" style="fill:#d1a686"/><path d="M159.16,354.19a28.11,28.11,0,0,0,56.21,0Z" style="fill:#e7e9eb"/><path d="M209.8,562.13c10.61,0,30-22.3,41.47-40.28l19.9,9.46s-20.35,85.35-6.91,111.13H86c9.9-30.09-.89-115-.89-115s16.22-6.61,25.22-9.79c4.07,21.55,18.12,46.59,29.43,46.59S199.19,562.13,209.8,562.13Z" style="fill:#1f2733"/><circle cx="226.97" cy="323.95" r="10.92" style="fill:#3d2722"/><circle cx="152.69" cy="323.95" r="10.92" style="fill:#3d2722"/><g style="clip-path:url(#clip-path-2)"><g style="opacity:0.7000000000000001"><path d="M224.21,407.11c.22-.76.07.12.29-.63-.35,1.92-.69,3.4-1.13,5.16-.31,1-.39.89-.18-.33C223.48,409.94,223.95,408,224.21,407.11Z" style="fill:#fff"/><path d="M227.17,395.14c-.07.54-.39,1.82-.61,2.82s-.34,1.2-.34,1C226.47,397.55,227.47,393.35,227.17,395.14Z" style="fill:#fff"/><polygon points="141.65 579.57 141.22 579.68 141.28 579.25 141.71 579.14 141.65 579.57" style="fill:#fff"/><path d="M146.3,572.59l1.47-.35c1,.59-.84,1.81-2.81,2.76C145.33,574.37,144.32,573.56,146.3,572.59Z" style="fill:#fff"/><path d="M217.91,640.8c1.21-1.11,2.78-2.22,3.29-1.47a4.22,4.22,0,0,1-1.65,2.17C218.29,642.09,217.63,641.6,217.91,640.8Z" style="fill:#fff"/><path d="M215.55,542.25c0-.26,0-1.09-.05-1l.44-1.54c.21-4,.62-1.75.87-4.11.45.29.58,1.35.65,4.88-.25,4-.37,3.77-.63,7.64-.36,0-.7,7.37-1.13,4.91-.5,2-.37-1.74-.8-.82.23-.08.1-2.13.09-3.07l-.14-.69a20.84,20.84,0,0,0,.35-4.95C215.26,544.3,215.42,542.75,215.55,542.25Z" style="fill:#fff"/><path d="M129.79,634.05c.16-.37,0-.67.63-1.18,1-.17,1.8-.94,2.62-.68C133.64,633.06,130.88,634.55,129.79,634.05Z" style="fill:#fff"/><path d="M121.63,630.66c.15-.44,1.09-.64,1.67-.9s.39.41.68.58C123.27,631.09,121.34,631.45,121.63,630.66Z" style="fill:#fff"/><path d="M105.1,637a2.71,2.71,0,0,1,2.08-1.17c0,.39.65.57-.34,1.1C105.78,637.68,105.77,637,105.1,637Z" style="fill:#fff"/><path d="M118.86,630.49c.8-.87-1.51-1.48,1.48-2.28-.27.78,2,.66.49,1.92A6.62,6.62,0,0,1,118.86,630.49Z" style="fill:#fff"/><path d="M179.33,563.73,179,565.8c-2,3.25-2.48-1.87-2.72-5.35l.08-3C178.18,556.12,179.46,558.64,179.33,563.73Z" style="fill:#fff"/><polygon points="169.99 641.34 169.56 642.08 169.06 641.91 169.99 641.34" style="fill:#fff"/><path d="M169.18,636.28a7.56,7.56,0,0,1,1-1.36,3.31,3.31,0,0,1,2.27-.56c1.09.54.54,1.92-.14,3.14l.44-.14a3.73,3.73,0,0,0-.88.08c-1,.52-.27.69-.27,1C170,638.35,168.48,637.77,169.18,636.28Z" style="fill:#fff"/><path d="M171.34,636.12l-.4.57c1.24-.41-.13.08.23.34C171.65,636.07,170.15,637.44,171.34,636.12Z" style="fill:#fff"/><path d="M173.41,631.11c-1.75.18-2.33-1.06-1.83-2.31.5-.67,1.32-1.69,2.43-1.68,1.09.22,2.26.62,2,1.7-1.4,1.06-.57,1.47-.81,2.19C174.36,631.4,174.92,629.72,173.41,631.11Z" style="fill:#fff"/><polygon points="172.84 630.21 173.19 629.88 173.25 629.97 172.84 630.21" style="fill:#fff"/><path d="M238.26,586.42c.19-.3.8-.5,1.21-.75,2-.66,1.5.36,1.42.89-1.3.86.65.17-.34.95C239.67,587.26,237.4,587.72,238.26,586.42Z" style="fill:#fff"/><path d="M184.57,590.46c.36-.24.18-.39.71-.68a7.15,7.15,0,0,1,3.16-.82c.35.29.68.6,1,.89a3.15,3.15,0,0,1-.81.23l-.64.8C185.22,591.76,185.08,590.89,184.57,590.46Z" style="fill:#fff"/><polygon points="190.86 598.92 191.35 599.23 191 599.22 190.86 598.92" style="fill:#fff"/><path d="M181.47,580.28l-.78.06c-.55.29,0,.33-.14.52-2.16.23-2.25-.45-3.5-.85a6.84,6.84,0,0,1,.53-.53c.22-.18.45-.36.71-.55a9.41,9.41,0,0,1,2.31-1.13c1.9-.69,2.07-.23,3-.3a.21.21,0,0,1,.15.13.22.22,0,0,1,0,.2,2.19,2.19,0,0,1-.32.51c-.26.35-.45.7.28.75l-.45.06-2.14,1.71C181.28,580.66,180.78,580.58,181.47,580.28Z" style="fill:#fff"/><path d="M123.78,602.74c.06-.82-.93-1.38-1.62-2s-1-1.45.35-2.64c1.8-1,3.77-.75,4-.16.86,1.25-1.66,3.1-2,4.61Z" style="fill:#fff"/><path d="M194.54,568.69c.23-.51-.05-1,2-1.75,2.2-.79,1.78-.14,2.61-.19.35.27-.58.84-.81,1.24-.56.13-1.12.22-1.16.42C195.62,568.64,195.58,568.84,194.54,568.69Z" style="fill:#fff"/><path d="M70.69,613.39a1.66,1.66,0,0,1,.39-1.17,3.45,3.45,0,0,1,1.34-1.09c1.54-.53,2.27-.32,2.44.16a3.3,3.3,0,0,0,.09.61,2.34,2.34,0,0,1,.11.66,1.69,1.69,0,0,1-.8,1.37C72,614.86,71.87,613.7,70.69,613.39Z" style="fill:#fff"/><path d="M204.48,564.4c-.79-.06-1.5.59-1.73.53s.63-.41.78-.48l.46-.21c.93-.07.83.41-.19.86C203.83,564.94,204.83,564.54,204.48,564.4Z" style="fill:#fff"/><path d="M25.45,623.37c-.57.1-.67.39-.93.6-1.6.17-.31-.8.09-1.11-.92-1.67-3-3.39.41-6.09a5.38,5.38,0,0,1,4.14-.22l.24,3.24-.29-.1a16.85,16.85,0,0,1-3.2,4.59C25.72,624,26,623.43,25.45,623.37Z" style="fill:#fff"/><path d="M91.84,600.87a5.8,5.8,0,0,0,1.71-.75l-.44.13V600l.44-.13c-.13.19.13.17.28.17,1-.59,1.27-1.13,0-1-.38,1.33-2.83.87-3.67,1.78-.44-.64-1.36-2.08,1.92-3.36a5.23,5.23,0,0,1,2.72.09c-.27.64.45,1.19.74,1.7,0-.1.14-.29-.28-.27l-.43.12-.26,1c-.43,0-1.27.53-1.72.3l-.68.91C92,601.23,92.42,600.81,91.84,600.87Z" style="fill:#fff"/><path d="M253.27,547.76a6.77,6.77,0,0,1,2.83-.54c1.32.06-1.76,1.19-.25,1.14C254.5,548.37,252.34,548.45,253.27,547.76Z" style="fill:#fff"/><path d="M92.39,599.75c0-.26.71,0,.42.13l-.42.12Z" style="fill:#fff"/><path d="M91.11,599.6a12.9,12.9,0,0,0,1.68-.94h.73c.12-.19.56-.26,1-.39l-1.42.91c-.85.09-1-.22-2,.42l1,0A1.47,1.47,0,0,1,91.11,599.6Z" style="fill:#fff"/><path d="M207.2,558c.81-.58,0-1,2.68-1.75s1.29.26,2.49.25c.21.21-1.34.66-.84.84h-.27C210.4,557.53,206.79,558.66,207.2,558Z" style="fill:#fff"/><path d="M38.43,608.33c-1.12-.69-1.23-1.6-.32-2.75.72-.25,1.41-.93,2-.65,2.25.21.81,1.92.33,3C40.12,607.45,39,608.36,38.43,608.33Z" style="fill:#fff"/><polygon points="39.29 606.88 39.39 607.76 39.11 607.83 39.29 606.88" style="fill:#fff"/><path d="M226.61,549.1c-.21.37-1.25.17-1.68.4-.25-.22-1-.56.77-1.12,2.12-.47,1.34,0,2.29,0l-.83.75Z" style="fill:#fff"/><polygon points="226.23 549.05 226.31 548.71 227.25 548.71 226.96 548.72 226.2 549.19 225.52 549.19 226.23 549.05" style="fill:#fff"/><path d="M172.22,555.17a.77.77,0,0,1-.07-.32.57.57,0,0,1,0-.15h0l-8.83,51.12,0,0,0,0-.17.18-1.33,1.42-2.51,2.72c-1.58,1.74-3,3.3-4,4.53.6.16,2.56-1.19,5.4-3.53l1.1-.92.58-.49.3-.25,9.48-54.84h0v0a.41.41,0,0,0,0,.07,1,1,0,0,0,0,.31v0l0,.07Z" style="fill:#fff"/><path d="M172.17,555v.12a1,1,0,0,1,0-.38v0h0c-36.5,211.24-10.13,58.57-18.29,105.72l0,0-.05,0-.11.09-.42.38-1.68,1.51-6.72,6.06-6.72,6.1-3.37,3.07-1.68,1.54-.84.77-.42.39c-.08.08,0,0,0,0a2.67,2.67,0,0,1,.82,1.65,4.71,4.71,0,0,1-1.11,2.55,3.22,3.22,0,0,1-.9.75,1.36,1.36,0,0,1-.43.15h0s0,0,0,0l.12-.11,1-.87,1.95-1.75,3.88-3.5,11-9.94,2.68-2.44,1.33-1.21.66-.61.33-.3.08-.08c-17,98.33,23.16-134,19-110.05h0v0a.71.71,0,0,0,0,.13.93.93,0,0,0,0,.26A.71.71,0,0,1,172.17,555Z" style="fill:#fff"/><path d="M28.46,593.41A2,2,0,0,1,27,590.26c.42-.88,1.45-1.73,3.51-2.27a4.38,4.38,0,0,1,3.94.62c.46.73-.71,1.56.5,2-3.46,0-.79,2.28-3.51,1.83l-.72.8C30.55,592.83,29.19,592.93,28.46,593.41Z" style="fill:#fff"/><path d="M81.58,580.56l-.27-.1.28-.06V580l.73-.05-1,.88C81.44,580.76,81.74,580.64,81.58,580.56Z" style="fill:#fff"/><path d="M145.69,637.63l.53-1.65c.19,1,1.05,1.06,1.64,1.54s.95,1.32.44,3.8c-.83,3.72-2,3.32-3.06,4,.09-1.74-.72-.57-1.19-.86,0-.39.24-.5.42-.83a1.18,1.18,0,0,1-.27-1.24,7.25,7.25,0,0,0,.1-.76c1.37-1.43,3.53-3.59,7.27-7.21l-2.39,2,6.23-6.13,3.09-3,.77-.76.38-.38.19-.19,12.31-71.25h0v0h0c-24.56,142.13-6.82,39.4-12.3,71.13l0,0-.08.08-.33.3-.63.57-2.09,1.88c-1.18,1-2,1.69-2.47,2.07-1,.77-1,.51-1,.3s0-.36-1.2.6c-.58.48-1.43,1.24-2.7,2.41l-2.23,2.08-1.38,1.31-.09.09h0l0,0Z" style="fill:#fff"/><path d="M81.42,577.29c1.33-.31,1.45.43,1.75.53l-.5,1.58-1-.18c1.93-.12,1.36-.94,1.53-1.13-.61.07-1-.17-1.77.08-2.12.87-.49,1.32-.5,1.7l-.31,0-.46,1C79.54,579.88,78.24,578.65,81.42,577.29Z" style="fill:#fff"/><path d="M191.13,503.36c.09-.07,0,.27,0,.46l-.32,1.06,0-.82A3,3,0,0,0,191.13,503.36Z" style="fill:#fff"/><path d="M167.79,607.81a3.91,3.91,0,0,0-.17,1l-.51.62c0,.49.51-1.57.42-2.44C167.4,607.81,167.72,607.49,167.79,607.81Z" style="fill:#fff"/><path d="M198.5,504.18l0,.06-.28,1.1C198.15,505.35,198.32,504.34,198.5,504.18Z" style="fill:#fff"/><path d="M198.55,505.43c.36-.79,0,0-.11.24l-.13.94.46-.79.08-.55-.08.55a10.39,10.39,0,0,0,.44-1.54c.05-.84-.31-.1-.62.51l0-.39c.5-.95.59-.1.77.66a14.46,14.46,0,0,1-.37,2.06c-.68,1.37-.75.07-.75-1.32Z" style="fill:#fff"/><polygon points="198.45 507.31 198.49 506.93 198.78 506.28 198.45 507.31" style="fill:#fff"/><path d="M182.59,633a11.82,11.82,0,0,1-.68,5c-.29-.17-.72,1.06-1,.91.07-.35.63-3,.11-2.59.11,1.26-.55,1.79-.82,1.68l.4-.6c.09-1.49-.32-.9-.37-2.08l.41-.6,0-1.65C181.28,632.84,182.11,631.43,182.59,633Z" style="fill:#fff"/><path d="M194.41,544.1c.45.37,1.11-.69.68,2.94-.36,1.94-.88,2.59-1.15,2.73l-.51-1,.11-.24.18-2,.11-.23,0-1.12C194,545.46,194.41,544.78,194.41,544.1Z" style="fill:#fff"/><path d="M194.77,545.71c.08-.78-.15-.53-.18-.82.15-.41.27-.43.37-.47a18.75,18.75,0,0,1-.63,3.28c-.35.76-.35-.87-.58-.38C194.22,547.27,194.41,544.78,194.77,545.71Z" style="fill:#fff"/><path d="M194.48,547a1,1,0,0,0-.21.56l-.11.51-.11-.21.11-.51.06.12.15-1.35Z" style="fill:#fff"/><path d="M176.86,640.1a13,13,0,0,1-.39,2.29c-.58,1.33-.89.52-1.28.06.36-.48.32.59.79-.64l.21-2c-.26.58-.58.89-.53,0C176.14,639.22,176.74,638.6,176.86,640.1Z" style="fill:#fff"/><path d="M199.07,534.92l-.17,1.34-.47.72a.87.87,0,0,0,.2-.55l0-.62-.53,1.35c.14-.93-.06-.62-.08-.9l.13.26.14-.66v.44l.44-1.48-.46-.89C198.57,534.21,199,533.46,199.07,534.92Z" style="fill:#fff"/><path d="M198.7,552.54a3.23,3.23,0,0,0-.29,1.07,4.65,4.65,0,0,0,.11,1.92l.29-1.12c.12-1.39-.31.35-.08-1.34.46-1.68.34.68.52,1-.33,2.68-.71,2.18-.84,1.66-.36.27-.13-1.69-.19-2.53C198.31,553.15,198.69,551.77,198.7,552.54Z" style="fill:#fff"/><path d="M200.79,565.79a24.28,24.28,0,0,1-.38,5.45,10,10,0,0,1-.46,2,14.39,14.39,0,0,1-.43,5.58c-1.37,1.52-1.25-5.16-1.3-7.9l.37-.94-.06-1.3C199.54,565.65,200.31,564.34,200.79,565.79Z" style="fill:#fff"/><path d="M223.31,583.55v.25l.18-3.35c0-.38,0-.81,0-.39l0,.46.15-2.73v-.21l.25-4.73c.22-4.1.05-1.22.09-2.09l-.13,2.35-.38,7.09-.24,4.66-.24,4-.46,8.89c0-.62,0,1.09-.11,2.46l-.05,1c.2-3.84.08-1.28.09-1.5l0,.34.13-2.45,0,.85.08-1.46.06-1,.07-1.29.06-1.05.07-1.34.14-2.68,0,.49.07-1.31c0-.54,0-.7,0-.24l0,.44.08-1.49,0,.52Z" style="fill:#fff"/><polygon points="195.15 605.63 195.21 605.27 195.38 605.59 195.32 605.94 195.15 605.63" style="fill:#fff"/><path d="M200.27,600.52a3.09,3.09,0,0,1-.2.72c.17-.55.23-2.42,0-1.62C200.18,599.23,200.45,599.3,200.27,600.52Z" style="fill:#fff"/><path d="M202.14,606.15l0-.59a3.5,3.5,0,0,0,.45-1.73c1-1.55.15,7.2,1.39,3.59.05,3,.78,2.79.46,6.71-.32,2.92-.94,3.76-1.42,4l-.7-.13c.11-.63,0-1.19-.08-1.14l-.26-.44c.49-2.09-.26-1.46-.19-3.24l.08.13c.29-2.66-.31-2-.19-4.33l-.13-.87A7,7,0,0,1,202.14,606.15Z" style="fill:#fff"/><path d="M222.29,638c-.32-.59.63-.24.17-1.53.55.2.53-1.68.94-1.86l-.09-.34c.41.66.63-.29.89-1.05s.58-1.31,1.25-.1c.36-1.07.61-.59.86.06a9.59,9.59,0,0,0,.38.94,1,1,0,0,0,.1.15c0,.07,0,0,0,0s-.07-.11-.1-.26a25.71,25.71,0,0,0-.48,7.11,17.33,17.33,0,0,0,.19,2c0,.15.06.32.1.65l0,.28s-.06.14-.09.22l-.27.79-.48,1.07c-.19-2.5-.82,2.65-1.16-.07-.44.08-.75,1-1.22.55a2.45,2.45,0,0,0,.2-1.06c-.23-.84-.64-.43-.88-.68l.15-1.06-.58-1c.16-.09.18-.56.2-1l-.38-.45C221.81,639.38,222.92,640,222.29,638Z" style="fill:#fff"/><path d="M219.94,646.59l.14-2.63c0-.86.1-2,0-.83l-.23,4.38-.1,2,.15-2.76Z" style="fill:#fff"/><path d="M220.4,637.9l-.11,2,.08-1.55Z" style="fill:#fff"/><path d="M213.36,714.87c0-.23,0-.58,0-.36l.45-6.79c.07-.2.24-1.7.37-3s.27-2.49.52-2c.32-.56.28-3.34.66-1.7a6.08,6.08,0,0,0,.25-1.69c.92,1.12,2.68-1.33,4,1.6.47.1.62,1,.81,1.85a3.27,3.27,0,0,0,.34,1,.6.6,0,0,0,.12.14l.07,0,0,0h0l0-.84.84-16.89-.51,10.33-.26,5.19-.13,2.6c0,.62,0,.38,0,.46l0,.06,0,.21s0,.08,0,0l0-.43,0-.93.22-4.41.57-11.33.64-12.9.16-3.22,0-.79v-.25l4.39-102.21h0v.17c0,.33,0,.5,0,0q0,.22,0,.43c0-.19,0-.35,0-.48v-.14l-4.76,110.41-.41,8.57-1.26,26.29-.27,5.63,0,.77,0,.39h0l0,0-.07.07a2.3,2.3,0,0,1-.31.24,5.9,5.9,0,0,0-.66.45c-.42.36-.74.93-.67,2.27-1.2-1.26-1.19,2.51-1.86,3.58l-.36-1c-.23.55-.43,1.11-.65,1.66,0-.78.25-1.64,0-2-.81.07-1.28,1.6-1.74,3.12a4.48,4.48,0,0,1,.19-1.46c-.12-.81-.27-.52-.41-.08s-.31,1-.43.87l.06-1a1.83,1.83,0,0,0-.3.14l.1-.63c-.08-2-.37.26-.45.39,0-.84.25-2,.21-2.91,0-.62,0-1.24,0-1.86a6.71,6.71,0,0,1-.06.75l.21-3.19c.07-1.49-.15,2.12,0,1.06C213,719.68,213.23,717.15,213.36,714.87Z" style="fill:#fff"/><path d="M222.36,589c-.06.93-.12,1.23-.18,2.5-.09,2.25,0,1.46.1.6C222.33,590.3,222.43,589.51,222.36,589Z" style="fill:#fff"/><path d="M225.82,514.17c0-.5,0,.06-.08.43-.09,1.12-.11,2.34-.12,3,.07.11,0-.65.13-1.06C225.81,515.38,225.84,514.57,225.82,514.17Z" style="fill:#fff"/><path d="M225.86,594.21l.19-2.94.08-1.16,0-.31.91-21.14h0v.21a13.66,13.66,0,0,1-.54,3c-.29.87-.22.59-.22.64v0c-.07.18.1-.27,0,0l.08-.22c0-.13.16-.47.18-.57s.1-.31.17-.66a11.92,11.92,0,0,0,.25-1.51l0,.17,0-.44,0-.29v-.25h0l-1.18,27.48v.18l0,.24-.21,2.92.13-1.78.07-.88,0-.44,0-.22h0l1.18-27.49h0v0h0l-1.15,26.69v.12l0,.33-.06.65-.11,1.29-.43,4.93.51-6.76-.32,3.79-.16,1.87-.08.93c0,.27-.06.77-.07.6Z" style="fill:#fff"/><path d="M226.46,572c0,.08-.08.25-.13.38l0,.1,0,0v0l3.89-8.17-.09.21-.2.44-.43.92a34.65,34.65,0,0,1-2,3.49l-.86,1.28c-.33.47-.68.92-1.09,1.47l-1.72,2.71c-1.17,1.82-2.37,3.61-3.42,5.16q-3.14,4.6-6.5,9l-.48.63-.51.67-.91,1.28-1,1.36-.24.33,0,0,0,.06-.17.26c.5-.5.3-.11,0,.45a5.48,5.48,0,0,0-.74,1.68c-.09.73-2.11,2.72-1.85,3.33-2.18,1.85-2.8,4-5.36,6.32,0,0-.2,0,0-.36A7.2,7.2,0,0,0,201.1,607c-.09-.07.19-.66.5-1-.44.59-.69.94-.82,1.13l-.08.12v0h0l.26-.36,1.37-1.85,5.65-7.75,2.86-4,1.42-2,.7-1,.48-.62c1.25-1.65,2.46-3.27,3.58-4.83,2.25-3.11,4.17-5.94,5.53-8l.9-1.38,1.24-1.92.73-1.16.19-.3c.06-.1.09-.13.14-.19l.27-.36a35.05,35.05,0,0,0,3.35-5.39q.42-.84.79-1.7l-3.83,8,3.69-7.7-3.71,7.75,0,0,0,0a3.52,3.52,0,0,0,.14-.39l-.06.2.13-.41,0,.15C226.42,572.15,226.38,572.3,226.46,572Z" style="fill:#fff"/><path d="M201.4,617.76a2.31,2.31,0,0,0,.95-2,4.52,4.52,0,0,0,1.4-1.31c.39-.68-.12-.49-.16-.71.75-.6.51,1.19,1.62-.5l.25-.78c.34-.06.67-.12,1-.17.18-.46.36-.93.55-1.38.09.46,1.3.43,2.35-1.12l.91-1.66c.2-.06.1.27,0,.54.71.17,1.87-2.7,2-1.41,1.24-2,3.1-3.31,3.86-4.48.12.66,1-.65,1.42-.91.2.15-.09.74.21.77,1.24-1.62,0,.81,1.06-.15.11.65-.58,2.49.66,1.86-1.73,1.25-1.08,2.5-1.84,3.68,1.19.48,1.51-2.37,2.78-2.6-.63,1.85-2.83,3.15-1.64,4.39l1.12-.55c-.13.69-1.29,2.72.3,2.11l-.58,2.26.94.22a3,3,0,0,1-.45.65c-.14.21-.3.4-.07.73.51.5,1,.06,1.45,0a3,3,0,0,0-.56,3.32l.74.17.37.08a1.42,1.42,0,0,1,.21.05l.36.13-1.46,2.58c2.67,1.28,2.26,1.67,1.82,2.21s-.9,1.17,2,2.72c-2.93-.54-2.83.32-1.69,1.55a12,12,0,0,0,1,.94l.29.24.15.12.54.28c.74.38,1.5.75,2.26,1.09a62.34,62.34,0,0,0,7.83,2.91A60.45,60.45,0,0,1,226,631l-1-.36-.47-.17-.23-.08-.08,0a2.72,2.72,0,0,0-.5-.06c-.3,0-.51.08-.61.29-.72.23-.87.51-.65.85a2.19,2.19,0,0,0,.58.53,4.89,4.89,0,0,0,.47.29c.57.27,1.18.54,1.83.81a65.68,65.68,0,0,0,8.6,2.89c2.88.77,5.48,1.27,7,1.67a67.15,67.15,0,0,1-10.75-2.2c-1.77-.52-3.51-1.1-5.22-1.75l-2.78-1.11c-1.68.28-.93,2-.42,3.26l.89.38,1.14.47q1.15.46,2.32.87c-.07.22-2-.19-4.49-1-.89-.1-1.78-.21-2.59-.29-1.55-.14-2.41.13.49,2.11a5.24,5.24,0,0,0-2.49-.69c-1.15.12-.54.88.35,1.7s2,1.68,1.87,2.1c-.78-.17-2.57-1.85-4.39-3.28a12.39,12.39,0,0,0-2.73-1.73.65.65,0,0,0-.24-.07h-.17a1.18,1.18,0,0,0-.36.08,2.16,2.16,0,0,0-.78.56l-1.31,3.22q-.29-1.7-.52-3.38a6.69,6.69,0,0,0-2-.47,2.19,2.19,0,0,0-1.4.27,9.85,9.85,0,0,0-1.85,1.7c-1.16,1.24-2.32,2.36-4.32,1.17a1.67,1.67,0,0,0-.52-2.68c-.62-.45-1.28,0-1.92.47a3.24,3.24,0,0,1-.92.48.56.56,0,0,1-.7-.26,2.88,2.88,0,0,0,.9-2.81,1.18,1.18,0,0,0-1.4-.89c-.87.14-1.72,1.64-2.32,1.56.54-1,2.6-1.93,2.76-3.59l-1.38.32a5.11,5.11,0,0,0,1.65-2.48l-.94.24c.52-.57,1.52-1,1.34-1.72l-1,0c.44-.67,1-.43,1.37-1.33.13-.48.59-1.7-.33-1-.45,0,1.45-1,1.19-2l-.41-.32a4.72,4.72,0,0,0,2.24-2l-.77-.61c.52-.37,1-.38,1.53-1.2l-.21-1.13C200,618.42,200.4,618.94,201.4,617.76Z" style="fill:#fff"/><path d="M223.66,591.92c-.06-.14,0-2.2-.22.84-.12,2.59-.38,7.84-.21,6.8l0,1.26.17-1.67c.06-2.14.18-2.44.23-4.71C223.59,594,223.57,593.38,223.66,591.92Z" style="fill:#fff"/><path d="M223.2,594.65l0-1.63Z" style="fill:#fff"/><polygon points="223.28 589.85 223.23 592.13 223.26 591.58 223.24 592.37 223.29 591.42 223.28 589.85" style="fill:#fff"/><path d="M223.49,584.42c0,.29,0,0,0-.13l0-1.45.05-.39c0-.83.08-2.37.16-4.12l0-.3.13-3.51v-.76a1,1,0,0,0,0-.23c-.07,1-.21,3.36-.13,1.64l-.12,2.35-.31,5.52-.33,6.49-.17,3.37.07-1.12-.23,4.37.09-1.27c-.11,2.36-.11,2.77-.15,3.92.14-2.09-.05,2.06-.13,4,.09-1.48.24-5.37.36-7,0,.47-.06,1.27,0,1.3.12-1.51.17-4.17.26-5l-.18,4.83C223.11,592.13,223.21,589.08,223.49,584.42Z" style="fill:#fff"/><path d="M223.31,588.86l0-1.43Z" style="fill:#fff"/><polygon points="222.37 602.5 222.37 602.59 222.44 601.12 222.37 602.5" style="fill:#fff"/></g></g><circle cx="95.03" cy="357.24" r="15.91" style="fill:#d1a686"/><circle cx="95.03" cy="375.1" r="4.44" style="fill:none;stroke:#fff;stroke-miterlimit:10"/><circle cx="95.03" cy="379.54" r="4.44" style="fill:none;stroke:#fff;stroke-miterlimit:10"/><circle cx="95.03" cy="383.98" r="4.44" style="fill:none;stroke:#fff;stroke-miterlimit:10"/><circle cx="95.03" cy="388.43" r="4.44" style="fill:none;stroke:#fff;stroke-miterlimit:10"/><circle cx="95.03" cy="392.87" r="4.44" style="fill:none;stroke:#fff;stroke-miterlimit:10"/><circle cx="95.03" cy="397.32" r="4.44" style="fill:none;stroke:#fff;stroke-miterlimit:10"/><circle cx="95.03" cy="401.76" r="4.44" style="fill:none;stroke:#fff;stroke-miterlimit:10"/><circle cx="95.03" cy="406.21" r="4.44" style="fill:none;stroke:#fff;stroke-miterlimit:10"/><circle cx="95.03" cy="410.65" r="4.44" style="fill:none;stroke:#fff;stroke-miterlimit:10"/><circle cx="95.03" cy="415.1" r="4.44" style="fill:none;stroke:#fff;stroke-miterlimit:10"/><circle cx="95.03" cy="419.54" r="4.44" style="fill:none;stroke:#fff;stroke-miterlimit:10"/><circle cx="95.03" cy="423.98" r="4.44" style="fill:none;stroke:#fff;stroke-miterlimit:10"/><circle cx="95.03" cy="428.43" r="4.44" style="fill:none;stroke:#fff;stroke-miterlimit:10"/><g style="clip-path:url(#clip-path-3)"><rect x="14.84" y="611.12" width="55.57" height="4.43" transform="translate(-572.15 620.88) rotate(-86.73)" style="fill:#231f20"/><path d="M45.48,641.33l3.17-55.47,1.4.08L48.5,613.18c3.05-2.34,4.72-8.81,5.39-12H54c.08,3.23,1.05,7.44,3.57,7.91,3.87.71,4-6.71,4.28-10.47.36-5,.33-9.82-3.69-10.54-.67-.15-2.24,0-2.32,1.45,0,.44.37.89.71,1.46a4.27,4.27,0,0,1,.65,2.66c-.12,2.18-1.4,3.31-2.8,3.23s-2.46-2.05-2.34-4.18c.29-5.12,4.54-6.36,7.3-6.2,4.88.28,7.87,5.65,7.39,13.44-.39,6.16-3.33,11.07-7.59,11.38A6.05,6.05,0,0,1,55.28,610l-2,3.93L54.82,618a6,6,0,0,1,4-.81c4.2.79,6.56,6.06,6.28,12.22-.44,7.74-4,12.78-8.91,12.5-2.8-.16-6.83-2-6.54-7,.12-2.13,1.33-4,2.8-3.94s2.54,1.4,2.41,3.58a4.41,4.41,0,0,1-.94,2.57c-.41.52-.85.94-.88,1.43-.07,1.31,1.49,1.72,2.14,1.76,4,.23,4.71-6,4.88-10.44.18-3.76.77-10.89-3.07-10.62-2.55.18-4,4.25-4.45,7.51h-.08c-.29-3.46-1.18-9.8-4-12.64l-1.56,27.3Z" style="fill:#231f20"/><rect x="306.28" y="588.32" width="4.43" height="55.57" transform="translate(-0.97 0.48) rotate(-0.09)" style="fill:#231f20"/><path d="M304,588.33l.09,55.56h-1.4l0-27.29c-2.91,2.51-4.19,9.07-4.68,12.34h-.08c-.27-3.22-1.49-7.37-4-7.69-3.9-.48-3.63,6.94-3.66,10.7-.07,5,.24,9.83,4.3,10.31.68.11,2.23-.17,2.23-1.59,0-.44-.42-.87-.8-1.42a4.27,4.27,0,0,1-.8-2.62c0-2.18,1.21-3.39,2.61-3.39s2.58,1.91,2.58,4c0,5.13-4.16,6.61-6.92,6.62-4.89,0-8.19-5.17-8.16-13,0-6.17,2.67-11.25,6.91-11.8a6.05,6.05,0,0,1,3.9,1l1.74-4-1.75-4a6,6,0,0,1-3.9,1c-4.24-.54-6.9-5.66-7-11.83,0-7.75,3.27-13,8.16-13,2.8,0,6.94,1.57,6.94,6.65,0,2.13-1.09,4.1-2.57,4.1s-2.62-1.25-2.62-3.43a4.41,4.41,0,0,1,.79-2.62c.38-.55.79-1,.79-1.47,0-1.31-1.59-1.63-2.24-1.63-4.05,0-4.35,6.28-4.26,10.7,0,3.77-.13,10.92,3.69,10.42,2.54-.33,3.74-4.48,4-7.76h.08c.5,3.44,1.76,9.71,4.72,12.38l0-27.35Z" style="fill:#231f20"/></g></g></svg>
