<svg xmlns="http://www.w3.org/2000/svg" width="504.36" height="585.24" viewBox="0 0 504.36 585.24"><title>Asset 1</title><g id="Layer_2" data-name="Layer 2"><g id="Layer_1-2" data-name="Layer 1"><line x1="288.43" y1="132.53" x2="290.2" y2="142.53" style="fill:none;stroke:#00d1bd;stroke-linecap:round;stroke-miterlimit:10;stroke-width:4.6394305229187px"/><line x1="469.67" y1="150.54" x2="471.44" y2="160.54" style="fill:none;stroke:#00d1bd;stroke-linecap:round;stroke-miterlimit:10;stroke-width:4.6394305229187px"/><line x1="369.84" y1="214.45" x2="378.35" y2="220" style="fill:none;stroke:#00d1bd;stroke-linecap:round;stroke-miterlimit:10;stroke-width:4.6394305229187px"/><line x1="372.45" y1="397" x2="380.96" y2="402.55" style="fill:none;stroke:#00d1bd;stroke-linecap:round;stroke-miterlimit:10;stroke-width:4.6394305229187px"/><line x1="419.27" y1="196.7" x2="427.77" y2="202.24" style="fill:none;stroke:#00d1bd;stroke-linecap:round;stroke-miterlimit:10;stroke-width:4.6394305229187px"/><line x1="299.89" y1="221.14" x2="301.66" y2="231.14" style="fill:none;stroke:#00d1bd;stroke-linecap:round;stroke-miterlimit:10;stroke-width:4.6394305229187px"/><line x1="184.27" y1="445.94" x2="186.04" y2="455.94" style="fill:none;stroke:#00d1bd;stroke-linecap:round;stroke-miterlimit:10;stroke-width:4.6394305229187px"/><line x1="226.57" y1="306.88" x2="236.72" y2="307.04" style="fill:none;stroke:#00d1bd;stroke-linecap:round;stroke-miterlimit:10;stroke-width:4.6394305229187px"/><line x1="217.51" y1="171.28" x2="219.28" y2="181.28" style="fill:none;stroke:#00d1bd;stroke-linecap:round;stroke-miterlimit:10;stroke-width:4.6394305229187px"/><line x1="142.55" y1="2.32" x2="144.32" y2="12.32" style="fill:none;stroke:#00d1bd;stroke-linecap:round;stroke-miterlimit:10;stroke-width:4.6394305229187px"/><line x1="309.53" y1="260.41" x2="311.29" y2="270.41" style="fill:none;stroke:#00d1bd;stroke-linecap:round;stroke-miterlimit:10;stroke-width:4.6394305229187px"/><line x1="319.58" y1="197.32" x2="309.49" y2="198.5" style="fill:none;stroke:#380089;stroke-linecap:round;stroke-miterlimit:10;stroke-width:4.6394305229187px"/><line x1="380.08" y1="152.72" x2="373.33" y2="143.36" style="fill:none;stroke:#fff;stroke-linecap:round;stroke-miterlimit:10;stroke-width:4.6394305229187px"/><line x1="76.69" y1="222.22" x2="69.93" y2="212.86" style="fill:none;stroke:#49a8f6;stroke-linecap:round;stroke-miterlimit:10;stroke-width:4.6394305229187px"/><line x1="319.18" y1="95.37" x2="312.42" y2="86.01" style="fill:none;stroke:#fff;stroke-linecap:round;stroke-miterlimit:10;stroke-width:4.6394305229187px"/><line x1="108.32" y1="53.98" x2="101.56" y2="44.62" style="fill:none;stroke:#49a8f6;stroke-linecap:round;stroke-miterlimit:10;stroke-width:4.6394305229187px"/><line x1="383.73" y1="119.57" x2="377.33" y2="127.46" style="fill:none;stroke:#00d1bd;stroke-linecap:round;stroke-miterlimit:10;stroke-width:4.6394305229187px"/><line x1="94.27" y1="131.25" x2="85.81" y2="136.87" style="fill:none;stroke:#00d1bd;stroke-linecap:round;stroke-miterlimit:10;stroke-width:4.6394305229187px"/><line x1="307.48" y1="148.63" x2="317.86" y2="148.39" style="fill:none;stroke:#7f50ff;stroke-linecap:round;stroke-miterlimit:10;stroke-width:4.6394305229187px"/><line x1="196.7" y1="135.74" x2="207.08" y2="135.51" style="fill:none;stroke:#7f50ff;stroke-linecap:round;stroke-miterlimit:10;stroke-width:4.6394305229187px"/><line x1="133.94" y1="388.48" x2="144.32" y2="388.24" style="fill:none;stroke:#7f50ff;stroke-linecap:round;stroke-miterlimit:10;stroke-width:4.6394305229187px"/><line x1="330.73" y1="49.16" x2="341.11" y2="48.93" style="fill:none;stroke:#7f50ff;stroke-linecap:round;stroke-miterlimit:10;stroke-width:4.6394305229187px"/><line x1="348.76" y1="183.13" x2="357.06" y2="188.99" style="fill:none;stroke:#7f50ff;stroke-linecap:round;stroke-miterlimit:10;stroke-width:4.6394305229187px"/><line x1="297.64" y1="176.43" x2="293.94" y2="188.92" style="fill:none;stroke:#7f50ff;stroke-linecap:round;stroke-miterlimit:10;stroke-width:4.6394305229187px"/><line x1="259.63" y1="259.92" x2="255.93" y2="272.4" style="fill:none;stroke:#7f50ff;stroke-linecap:round;stroke-miterlimit:10;stroke-width:4.6394305229187px"/><line x1="166.17" y1="93" x2="154" y2="88.37" style="fill:none;stroke:#7f50ff;stroke-linecap:round;stroke-miterlimit:10;stroke-width:4.6394305229187px"/><line x1="480.22" y1="193.99" x2="476.52" y2="206.48" style="fill:none;stroke:#7f50ff;stroke-linecap:round;stroke-miterlimit:10;stroke-width:4.6394305229187px"/><line x1="424" y1="160.04" x2="420.3" y2="172.52" style="fill:none;stroke:#7f50ff;stroke-linecap:round;stroke-miterlimit:10;stroke-width:4.6394305229187px"/><line x1="347.4" y1="99.43" x2="343.7" y2="111.92" style="fill:none;stroke:#380089;stroke-linecap:round;stroke-miterlimit:10;stroke-width:4.6394305229187px"/><line x1="123.05" y1="235.62" x2="119.35" y2="248.1" style="fill:none;stroke:#380089;stroke-linecap:round;stroke-miterlimit:10;stroke-width:4.6394305229187px"/><line x1="278.48" y1="175.16" x2="284.88" y2="167.28" style="fill:none;stroke:#e6d821;stroke-linecap:round;stroke-miterlimit:10;stroke-width:4.6394305229187px"/><line x1="155.73" y1="148.03" x2="162.13" y2="140.15" style="fill:none;stroke:#e6d821;stroke-linecap:round;stroke-miterlimit:10;stroke-width:4.6394305229187px"/><line x1="282.63" y1="41.06" x2="289.03" y2="33.18" style="fill:none;stroke:#e6d821;stroke-linecap:round;stroke-miterlimit:10;stroke-width:4.6394305229187px"/><line x1="413.09" y1="235.65" x2="419.49" y2="227.77" style="fill:none;stroke:#e6d821;stroke-linecap:round;stroke-miterlimit:10;stroke-width:4.6394305229187px"/><line x1="333.07" y1="196.09" x2="332.52" y2="206.23" style="fill:none;stroke:#f0f;stroke-linecap:round;stroke-miterlimit:10;stroke-width:4.6394305229187px"/><line x1="347.45" y1="142.28" x2="339.93" y2="149.1" style="fill:none;stroke:#f0f;stroke-linecap:round;stroke-miterlimit:10;stroke-width:4.6394305229187px"/><line x1="230.13" y1="83.45" x2="222.61" y2="90.27" style="fill:none;stroke:#f0f;stroke-linecap:round;stroke-miterlimit:10;stroke-width:4.6394305229187px"/><line x1="9.84" y1="141.1" x2="2.32" y2="147.91" style="fill:none;stroke:#f0f;stroke-linecap:round;stroke-miterlimit:10;stroke-width:4.6394305229187px"/><line x1="502.04" y1="171.11" x2="494.52" y2="177.93" style="fill:none;stroke:#f0f;stroke-linecap:round;stroke-miterlimit:10;stroke-width:4.6394305229187px"/><line x1="386.9" y1="196.9" x2="380.35" y2="189.14" style="fill:none;stroke:#f0f;stroke-linecap:round;stroke-miterlimit:10;stroke-width:4.6394305229187px"/><line x1="174.89" y1="201.74" x2="168.34" y2="193.98" style="fill:none;stroke:#f0f;stroke-linecap:round;stroke-miterlimit:10;stroke-width:4.6394305229187px"/><line x1="97.72" y1="340.63" x2="91.17" y2="332.87" style="fill:none;stroke:#f0f;stroke-linecap:round;stroke-miterlimit:10;stroke-width:4.6394305229187px"/><line x1="278.43" y1="217.89" x2="270.9" y2="224.71" style="fill:none;stroke:#f0f;stroke-linecap:round;stroke-miterlimit:10;stroke-width:4.6394305229187px"/><line x1="451.38" y1="219.84" x2="443.86" y2="226.66" style="fill:none;stroke:#f0f;stroke-linecap:round;stroke-miterlimit:10;stroke-width:4.6394305229187px"/><line x1="247.74" y1="194.96" x2="244.58" y2="204.61" style="fill:none;stroke:#380089;stroke-linecap:round;stroke-miterlimit:10;stroke-width:4.6394305229187px"/><line x1="409.95" y1="144.79" x2="399.82" y2="145.41" style="fill:none;stroke:#380089;stroke-linecap:round;stroke-miterlimit:10;stroke-width:4.6394305229187px"/><line x1="131.17" y1="474.94" x2="128.8" y2="491.94" style="fill:none;stroke:#380089;stroke-linecap:round;stroke-miterlimit:10;stroke-width:4.6394305229187px"/><line x1="277.62" y1="97.68" x2="267.48" y2="98.3" style="fill:none;stroke:#380089;stroke-linecap:round;stroke-miterlimit:10;stroke-width:4.6394305229187px"/><line x1="331.1" y1="127.69" x2="340.26" y2="132.08" style="fill:none;stroke:#e6d821;stroke-linecap:round;stroke-miterlimit:10;stroke-width:4.6394305229187px"/><line x1="31.12" y1="47.11" x2="40.28" y2="51.49" style="fill:none;stroke:#e6d821;stroke-linecap:round;stroke-miterlimit:10;stroke-width:4.6394305229187px"/><line x1="359.32" y1="156.09" x2="368.48" y2="160.47" style="fill:none;stroke:#e6d821;stroke-linecap:round;stroke-miterlimit:10;stroke-width:4.6394305229187px"/><line x1="446.65" y1="171.41" x2="455.81" y2="175.8" style="fill:none;stroke:#e6d821;stroke-linecap:round;stroke-miterlimit:10;stroke-width:4.6394305229187px"/><line x1="284.42" y1="245.4" x2="293.58" y2="249.78" style="fill:none;stroke:#e6d821;stroke-linecap:round;stroke-miterlimit:10;stroke-width:4.6394305229187px"/><line x1="210.42" y1="242.25" x2="219.58" y2="246.63" style="fill:none;stroke:#e6d821;stroke-linecap:round;stroke-miterlimit:10;stroke-width:4.6394305229187px"/><line x1="145.36" y1="310.63" x2="154.52" y2="315.01" style="fill:none;stroke:#e6d821;stroke-linecap:round;stroke-miterlimit:10;stroke-width:4.6394305229187px"/><line x1="327.75" y1="169.52" x2="326.61" y2="179.61" style="fill:none;stroke:#fff;stroke-linecap:round;stroke-miterlimit:10;stroke-width:4.6394305229187px"/><line x1="87.75" y1="426.37" x2="86.61" y2="436.45" style="fill:none;stroke:#49a8f6;stroke-linecap:round;stroke-miterlimit:10;stroke-width:4.6394305229187px"/><line x1="244.56" y1="129.36" x2="243.42" y2="139.45" style="fill:none;stroke:#49a8f6;stroke-linecap:round;stroke-miterlimit:10;stroke-width:4.6394305229187px"/><line x1="391.7" y1="176.08" x2="382.64" y2="180.67" style="fill:none;stroke:#fff;stroke-linecap:round;stroke-miterlimit:10;stroke-width:4.6394305229187px"/><line x1="315.8" y1="439.6" x2="306.75" y2="444.19" style="fill:none;stroke:#fff;stroke-linecap:round;stroke-miterlimit:10;stroke-width:4.6394305229187px"/><line x1="182.34" y1="250.33" x2="173.29" y2="254.92" style="fill:none;stroke:#fff;stroke-linecap:round;stroke-miterlimit:10;stroke-width:4.6394305229187px"/><line x1="458.02" y1="190.57" x2="448.97" y2="195.16" style="fill:none;stroke:#fff;stroke-linecap:round;stroke-miterlimit:10;stroke-width:4.6394305229187px"/><line x1="326.37" y1="227.3" x2="334.55" y2="235.19" style="fill:none;stroke:#fff;stroke-linecap:round;stroke-miterlimit:10;stroke-width:4.6394305229187px"/><line x1="246.42" y1="369.49" x2="250.51" y2="378.56" style="fill:none;stroke:#49a8f6;stroke-linecap:round;stroke-miterlimit:10;stroke-width:4.6394305229187px"/><path d="M307.49,397.47c-12.56-14.14-39.58-18.68-68.18.39" style="fill:none;stroke:#7f50ff;stroke-linecap:round;stroke-miterlimit:10;stroke-width:5.53767438104546px"/><rect x="76.54" y="331.87" width="166.23" height="104.75" rx="3.46" ry="3.46" transform="translate(-62.65 32.52) rotate(-9.73)" style="fill:#dcdcdc"/><rect x="176.63" y="345.77" width="45.38" height="34" transform="translate(-58.45 38.91) rotate(-9.73)" style="fill:#7f50ff"/><line x1="90.54" y1="367.64" x2="149.03" y2="357.89" style="fill:none;stroke:#9d9d9d;stroke-miterlimit:10;stroke-width:5.53767438104546px"/><line x1="94.12" y1="389.12" x2="152.61" y2="379.37" style="fill:none;stroke:#9d9d9d;stroke-miterlimit:10;stroke-width:5.53767438104546px"/><line x1="97.62" y1="410.12" x2="156.11" y2="400.37" style="fill:none;stroke:#9d9d9d;stroke-miterlimit:10;stroke-width:5.53767438104546px"/><circle cx="220.43" cy="407.49" r="10.88" style="fill:#fff"/><path d="M220.43,407.49c10.63-2.33,21-2.76,31.14.67S271,420,272.09,430.73c1.28,12.85-9.69,24.26-21.93,28.39s-25.53,2.89-38.43,2.46-26.64.26-37.35,7.49c-14.55,9.83-19.39,28.66-23.14,45.82-3.09,14.13-6.17,28.94-2.36,42.89s16.93,26.52,31.25,24.47c12.78-1.83,21.5-14.07,25.85-26.23s6-25.41,12.51-36.56c18.56-31.82,66.92-33.26,89.13-62.65a53.23,53.23,0,0,0,10.21-38.47c-1-7.9-5.05-14.92-10.34-20.88" style="fill:none;stroke:#7f50ff;stroke-linecap:round;stroke-miterlimit:10;stroke-width:5.53767438104546px"/></g></g></svg>
