<?xml version="1.0" encoding="UTF-8"?>
<svg width="680px" height="592px" viewBox="0 0 680 592" version="1.1" xmlns="http://www.w3.org/2000/svg" xmlns:xlink="http://www.w3.org/1999/xlink">
    <!-- Generator: Sketch 54.1 (76490) - https://sketchapp.com -->
    <title>illustration-1-on-1s</title>
    <desc>Created with Sketch.</desc>
    <defs>
        <path d="M171.461248,131.92412 C198.521361,124.811063 224.206999,104.931443 240.219675,84.81 C249.389675,54.32 271.909675,0.98 271.909675,0.98 L283,38 C283,38 279.399675,114.74 258.279675,133.64 C234.843853,154.833801 214.749887,210.104137 213.108244,214.69549 L212,262 L54.07,262 L51.24,212.74 L44.43,262 L0.43,262 L15.66,183.63 C20.1024529,163.768556 35.3345472,148.09187 55.06,143.08 L110.95,128.93 L116.26,85.7 L157.98,83.34 L160.41,128.96 L171.461248,131.92412 Z" id="path-1"></path>
    </defs>
    <g id="illustration-1-on-1s" stroke="none" stroke-width="1" fill="none" fill-rule="evenodd">
        <g id="beyond_boarding" transform="translate(0.000000, 2.000000)">
            <g id="confetti" transform="translate(11.420000, 0.250000)" stroke-linecap="round" stroke-width="4.51">
                <path d="M274.42,195.88 L276.13,205.59" id="Path" stroke="#00D1BD"></path>
                <path d="M379.29,131.85 L381,141.56" id="Path" stroke="#00D1BD"></path>
                <path d="M353.4,323.63 L361.66,329.02" id="Path" stroke="#00D1BD"></path>
                <path d="M535.39,65.93 L543.65,71.32" id="Path" stroke="#00D1BD"></path>
                <path d="M364.35,239.2 L372.61,244.59" id="Path" stroke="#00D1BD"></path>
                <path d="M659.29,19.08 L661,28.79" id="Path" stroke="#00D1BD"></path>
                <path d="M317.86,65.66 L319.58,75.37" id="Path" stroke="#00D1BD"></path>
                <path d="M246.77,223.24 L254.59,229.77" id="Path" stroke="#00D1BD"></path>
                <path d="M136.2,75.15 L137.92,84.86" id="Path" stroke="#00D1BD"></path>
                <path d="M260.08,128.85 L261.79,138.56" id="Path" stroke="#00D1BD"></path>
                <path d="M362.04,167.35 L353.03,174.34" id="Path" stroke="#380089"></path>
                <path d="M499.35,191.16 L492.79,182.06" id="Path" stroke="#FFFFFF"></path>
                <path d="M307.76,165.52 L301.19,156.43" id="Path" stroke="#FFFFFF"></path>
                <path d="M102.95,125.32 L96.39,116.23" id="Path" stroke="#FFFFFF"></path>
                <path d="M390.75,209.02 L378.91,215.92" id="Path" stroke="#00D1BD"></path>
                <path d="M89.31,200.38 L81.09,205.84" id="Path" stroke="#00D1BD"></path>
                <path d="M302.29,187.78 L303.87,197.32" id="Path" stroke="#7F50FF"></path>
                <path d="M206.57,226.62 L216.66,226.39" id="Path" stroke="#7F50FF"></path>
                <path d="M394.01,35.06 L404.1,34.83" id="Path" stroke="#7F50FF"></path>
                <path d="M337.51,143.28 L347.18,136.59" id="Path" stroke="#7F50FF"></path>
                <path d="M333.98,242.16 L342.04,247.84" id="Path" stroke="#7F50FF"></path>
                <path d="M665.87,147.52 L662.28,159.65" id="Path" stroke="#7F50FF"></path>
                <path d="M199.61,111.62 L196.01,123.74" id="Path" stroke="#7F50FF"></path>
                <path d="M159.14,163.23 L147.33,158.73" id="Path" stroke="#7F50FF"></path>
                <path d="M443.36,143.05 L439.77,155.17" id="Path" stroke="#7F50FF"></path>
                <path d="M271.33,19.07 L267.74,31.2" id="Path" stroke="#380089"></path>
                <path d="M170.45,203.61 L176.67,195.96" id="Path" stroke="#49A8F6"></path>
                <path d="M285.51,134.62 L287.25,125.02" id="Path" stroke="#49A8F6"></path>
                <path d="M381.43,268.9 L387.64,261.24" id="Path" stroke="#49A8F6"></path>
                <path d="M512.91,17.32 L505.6,23.94" id="Path" stroke="#FF00FF"></path>
                <path d="M234.74,160.98 L227.43,167.6" id="Path" stroke="#FF00FF"></path>
                <path d="M7.3,209.94 L-3.69482223e-13,216.56" id="Path" stroke="#FF00FF"></path>
                <path d="M456.02,187.84 L448.71,194.47" id="Path" stroke="#FF00FF"></path>
                <path d="M353.76,287.19 L347.4,279.66" id="Path" stroke="#FF00FF"></path>
                <path d="M236.11,251.78 L222.43,252.46" id="Path" stroke="#FF00FF"></path>
                <path d="M182.55,46.59 L176.19,39.05" id="Path" stroke="#FF00FF"></path>
                <path d="M496.44,135.03 L489.13,141.65" id="Path" stroke="#FF00FF"></path>
                <path d="M250.68,269.84 L239.75,275.5" id="Path" stroke="#380089"></path>
                <path d="M436.02,95.07 L426.17,95.68" id="Path" stroke="#380089"></path>
                <path d="M228.58,77.42 L226.28,93.93" id="Path" stroke="#380089"></path>
                <path d="M270.88,177.62 L261.04,178.22" id="Path" stroke="#380089"></path>
                <path d="M326.19,205.13 L317.74,216.34" id="Path" stroke="#49A8F6"></path>
                <path d="M27.97,118.65 L36.87,122.91" id="Path" stroke="#49A8F6"></path>
                <path d="M340.7,193.49 L349.24,198.42" id="Path" stroke="#49A8F6"></path>
                <path d="M202.12,308.19 L211.02,312.44" id="Path" stroke="#49A8F6"></path>
                <path d="M339.95,266.76 L329.03,264.28" id="Path" stroke="#FFFFFF"></path>
                <path d="M235.28,198.54 L246.26,204.46" id="Path" stroke="#FFFFFF"></path>
                <path d="M348.29,217.23 L339.49,221.69" id="Path" stroke="#FFFFFF"></path>
                <path d="M115.47,1.82076576e-14 L106.67,4.46" id="Path" stroke="#FFFFFF"></path>
                <path d="M597.53,134.48 L588.74,138.94" id="Path" stroke="#FFFFFF"></path>
                <path d="M44.77,46.39 L52.72,54.06" id="Path" stroke="#FFFFFF"></path>
            </g>
            <g id="direct-report" transform="translate(303.870000, 218.804111)">
                <path d="M183.45,73.2758891 C218.53,73.2758891 249.08,53.5958891 265.16,24.4858891 C286.287687,42.8471147 298.37768,69.4947436 298.28,97.4858891 C298.28,150.325889 256.28,193.165889 204.53,193.165889 C152.78,193.165889 110.79,150.325889 110.79,97.4858891 C110.747434,81.08781 114.876918,64.9484079 122.79,50.5858891 C139.603311,65.2317177 161.152299,73.2921621 183.45,73.2758891 L183.45,73.2758891 Z" id="Path" fill="#603813" fill-rule="nonzero"></path>
                <path d="M170.4,178.275889 L168.98,245.825889 C168.98,245.825889 123.62,276.065889 116.83,279.245889 C110.04,282.425889 114.44,277.185889 105.19,283.245889 C95.94,289.305889 101.46,371.065889 101.46,371.065889 L307.91,371.065889 C307.91,371.065889 305.99,308.325889 303.44,301.745889 C300.89,295.165889 290.13,282.745889 282.44,279.355889 C274.75,275.965889 217.3,247.805889 217.3,247.805889 L207.9,189.085889 L170.4,178.275889 Z" id="Path" fill="#CDAA7D" fill-rule="nonzero"></path>
                <circle id="Oval" fill="#CDAA7D" fill-rule="nonzero" cx="191.66" cy="115.925889" r="78.14"></circle>
                <circle id="Oval" fill="#DFC699" fill-rule="nonzero" cx="186.22" cy="110.485889" r="72.71"></circle>
                <path d="M209.55,128.505889 C209.55,142.185982 198.460093,153.275889 184.78,153.275889 C171.099907,153.275889 160.01,142.185982 160.01,128.505889 L209.55,128.505889 Z" id="Path" fill="#CDAA7D" fill-rule="nonzero"></path>
                <path d="M168.13,222.885889 L162.92,243.725889 C162.92,243.725889 123.62,276.085889 116.83,279.265889 C110.04,282.445889 114.44,277.205889 105.19,283.265889 C95.94,289.325889 101.46,371.085889 101.46,371.085889 L315.46,371.085889 C315.46,371.085889 305.98,308.345889 303.46,301.765889 C300.94,295.185889 290.15,282.765889 282.46,279.375889 C274.77,275.985889 221.68,248.165889 221.68,248.165889 L214.42,221.905889 C214.42,221.905889 202.35,227.595889 190.71,227.595889 C179.07,227.595889 168.13,222.885889 168.13,222.885889 Z" id="Path" fill="#004C3D" fill-rule="nonzero"></path>
                <path d="M184.78,60.2758891 C161.71,58.7058891 127.72,67.3258891 122.78,50.5158891 C138.85,21.4058891 169.41,1.72588908 204.48,1.72588908 C226.773027,1.72523399 248.311665,9.80000297 265.11,24.4558891 C256.32,61.6258891 226.33,63.0858891 184.78,60.2758891 Z" id="Path" fill="#754C24" fill-rule="nonzero"></path>
                <circle id="Oval" fill="#242778" fill-rule="nonzero" cx="151.86" cy="91.9058891" r="7.22"></circle>
                <circle id="Oval" fill="#242778" fill-rule="nonzero" cx="212.65" cy="91.9058891" r="7.22"></circle>
                <path d="M192.37,84.2758891 C186.433247,81.051325 179.255102,81.1079945 173.37,84.4258891" id="Path" stroke="#000000" stroke-width="5.47"></path>
                <path d="M212.65,72.7858891 C220.586458,72.781844 227.74369,77.559538 230.783645,84.8907084 C233.823599,92.2218789 232.147464,100.66243 226.536971,106.275785 C220.926478,111.889139 212.486782,113.569577 205.154063,110.53336 C197.821343,107.497144 193.040001,100.342348 193.04,92.4058891 C193.039999,81.5739663 201.818079,72.7914099 212.65,72.7858891 L212.65,72.7858891 Z M212.65,67.3258891 C198.798698,67.3258891 187.57,78.5545876 187.57,92.4058891 C187.57,106.257191 198.798698,117.485889 212.65,117.485889 C226.501302,117.485889 237.73,106.257191 237.73,92.4058891 C237.713469,78.5614406 226.494449,67.3424198 212.65,67.3258891 L212.65,67.3258891 Z" id="Shape" fill="#000000" fill-rule="nonzero"></path>
                <path d="M152.62,72.7858891 C160.556458,72.781844 167.71369,77.559538 170.753645,84.8907084 C173.793599,92.2218789 172.117464,100.66243 166.506971,106.275785 C160.896478,111.889139 152.456782,113.569577 145.124063,110.53336 C137.791343,107.497144 133.010001,100.342348 133.01,92.4058891 C133.007347,87.2032613 135.072223,82.2128117 138.750099,78.5330602 C142.427975,74.8533087 147.417372,72.7858884 152.62,72.7858891 L152.62,72.7858891 Z M152.62,67.3258891 C138.768698,67.3258891 127.54,78.5545876 127.54,92.4058891 C127.54,106.257191 138.768698,117.485889 152.62,117.485889 C166.471302,117.485889 177.7,106.257191 177.7,92.4058891 C177.683469,78.5614406 166.464449,67.3424198 152.62,67.3258891 L152.62,67.3258891 Z" id="Shape" fill="#000000" fill-rule="nonzero"></path>
                <path d="M234.98,92.3958891 L271.16,92.3958891" id="Path" stroke="#000000" stroke-width="5.47" stroke-linecap="round"></path>
                <path d="M113.52,92.3958891 L129.13,92.3958891" id="Path" stroke="#000000" stroke-width="5.47" stroke-linecap="round"></path>
                <circle id="Oval" fill="#DFC699" fill-rule="nonzero" cx="266.48" cy="102.805889" r="15.17"></circle>
                <path d="M267.25,114.045889 C271.343805,114.168038 275.180012,112.053776 277.26299,108.527395 C279.345968,105.001014 279.345968,100.620764 277.26299,97.0943833 C275.180012,93.5680026 271.343805,91.4537404 267.25,91.5758891 L267.25,114.045889 Z" id="Path" fill="#CDAA7D" fill-rule="nonzero"></path>
                <path d="M267.19,108.675889 C270.310409,108.675889 272.84,106.146298 272.84,103.025889 C272.84,99.9054802 270.310409,97.3758891 267.19,97.3758891 L267.19,108.675889 Z" id="Path" fill="#DFC699" fill-rule="nonzero"></path>
                <path d="M52.72,154.415889 L23.18,73.5158891 C21.02,69.1058891 15.42,54.2558891 15,49.3558891 C14.29,41.0858891 12.79,9.77588908 8.53,2.95588908 C4.53,-3.46411092 1.70530257e-13,1.24588908 1.70530257e-13,10.6258891 L1.70530257e-13,63.5158891 C1.70530257e-13,71.1858891 2,82.8958891 2,82.8958891 L19.91,147.095889 L52.72,154.415889 Z" id="Path" fill="#CDAA7D" fill-rule="nonzero"></path>
                <path d="M162.92,243.725889 C127.59,245.995889 90.34,220.205889 69.49,194.005889 C60.32,163.515889 37.8,110.175889 37.8,110.175889 L19.88,147.095889 C19.88,147.095889 30.31,223.935889 51.43,242.835889 C75.89,264.955889 96.91,285.835889 96.91,285.835889 C104.91,312.305889 101.02,363.725889 101.02,363.725889 C101.02,363.725889 181.52,242.525889 162.92,243.725889 Z" id="Path" fill="#004C3D" fill-rule="nonzero"></path>
            </g>
            <g id="manager" transform="translate(0.000000, 223.950000)">
                <g id="Group-3" transform="translate(0.000000, 104.050000)">
                    <mask id="mask-2" fill="white">
                        <use xlink:href="#path-1"></use>
                    </mask>
                    <use id="Mask" fill="#E2D3BC" fill-rule="nonzero" xlink:href="#path-1"></use>
                    <g id="Group" mask="url(#mask-2)" fill-rule="nonzero">
                        <g transform="translate(-19.000000, -36.000000)" id="Rectangle">
                            <rect fill="#D71C24" x="73.08" y="0.27" width="23.99" height="321.12"></rect>
                            <rect fill="#006838" x="109.07" y="0.27" width="23.99" height="321.12"></rect>
                            <rect fill="#A51C24" x="97.07" y="0.27" width="12" height="321.12"></rect>
                            <rect fill="#FFFFFF" x="131.77" y="0.27" width="12" height="321.12"></rect>
                            <rect fill="#D0D0D0" x="131.77" y="0.27" width="12" height="321.12"></rect>
                            <rect fill="#D71C24" x="2.4" y="0.27" width="23.99" height="321.12"></rect>
                            <rect fill="#006838" x="38.39" y="0.27" width="23.99" height="321.12"></rect>
                            <rect fill="#A51C24" x="26.39" y="0.27" width="12" height="321.12"></rect>
                            <rect fill="#FFFFFF" x="61.09" y="0.27" width="12" height="321.12"></rect>
                            <rect fill="#D0D0D0" x="61.09" y="0.27" width="12" height="321.12"></rect>
                            <rect fill="#D71C24" x="214.33" y="0.27" width="23.99" height="321.12"></rect>
                            <rect fill="#006838" x="250.32" y="0.27" width="23.99" height="321.12"></rect>
                            <rect fill="#A51C24" x="238.32" y="0.27" width="12" height="321.12"></rect>
                            <rect fill="#FFFFFF" x="273.02" y="0.27" width="12" height="321.12"></rect>
                            <rect fill="#D0D0D0" x="273.02" y="0.27" width="12" height="321.12"></rect>
                            <rect fill="#D71C24" x="285.01" y="0.27" width="23.99" height="321.12"></rect>
                            <rect fill="#006838" x="321" y="0.27" width="23.99" height="321.12"></rect>
                            <rect fill="#A51C24" x="309" y="0.27" width="12" height="321.12"></rect>
                            <rect fill="#FFFFFF" x="343.7" y="0.27" width="12" height="321.12"></rect>
                            <rect fill="#D0D0D0" x="343.7" y="0.27" width="12" height="321.12"></rect>
                            <rect fill="#D71C24" x="143.65" y="0.27" width="23.99" height="321.12"></rect>
                            <rect fill="#006838" x="179.64" y="0.27" width="23.99" height="321.12"></rect>
                            <rect fill="#A51C24" x="167.64" y="0.27" width="12" height="321.12"></rect>
                            <rect fill="#FFFFFF" x="202.34" y="0.27" width="12" height="321.12"></rect>
                            <rect fill="#D0D0D0" x="202.34" y="0.27" width="12" height="321.12"></rect>
                            <rect fill="#FFFF00" style="mix-blend-mode: multiply;" transform="translate(178.235000, 181.805000) rotate(90.000000) translate(-178.235000, -181.805000) " x="171.23" y="4.34" width="14.01" height="354.93"></rect>
                            <rect fill="#49A8F6" style="mix-blend-mode: multiply;" transform="translate(178.225000, 195.815000) rotate(90.000000) translate(-178.225000, -195.815000) " x="171.22" y="18.35" width="14.01" height="354.93"></rect>
                            <rect fill="#FFFF00" style="mix-blend-mode: multiply;" transform="translate(178.225000, 244.445000) rotate(90.000000) translate(-178.225000, -244.445000) " x="171.22" y="66.98" width="14.01" height="354.93"></rect>
                            <rect fill="#49A8F6" style="mix-blend-mode: multiply;" transform="translate(178.235000, 258.455000) rotate(90.000000) translate(-178.235000, -258.455000) " x="171.23" y="80.99" width="14.01" height="354.93"></rect>
                            <rect fill="#FFFF00" style="mix-blend-mode: multiply;" transform="translate(178.225000, 53.255000) rotate(90.000000) translate(-178.225000, -53.255000) " x="171.22" y="-124.21" width="14.01" height="354.93"></rect>
                            <rect fill="#49A8F6" style="mix-blend-mode: multiply;" transform="translate(178.235000, 67.265000) rotate(90.000000) translate(-178.235000, -67.265000) " x="171.23" y="-110.2" width="14.01" height="354.93"></rect>
                            <rect fill="#FFFF00" style="mix-blend-mode: multiply;" transform="translate(178.235000, 115.885000) rotate(90.000000) translate(-178.235000, -115.885000) " x="171.23" y="-61.58" width="14.01" height="354.93"></rect>
                            <rect fill="#49A8F6" style="mix-blend-mode: multiply;" transform="translate(178.225000, 129.905000) rotate(90.000000) translate(-178.225000, -129.905000) " x="171.22" y="-47.56" width="14.01" height="354.93"></rect>
                        </g>
                    </g>
                    <path d="M159.273508,107.623877 L159,112 L143,118 L128,135 L128,115 L113,115 L112.804858,113.829149 L116.26,85.7 L157.98,83.34 L159.273508,107.623877 Z" id="Combined-Shape" fill="#CEB89B" fill-rule="nonzero" mask="url(#mask-2)"></path>
                </g>
                <circle id="Oval" fill="#875631" fill-rule="nonzero" cx="108.14" cy="33.84" r="33.84"></circle>
                <circle id="Oval" fill="#875631" fill-rule="nonzero" cx="132.87" cy="105.32" r="78.22"></circle>
                <circle id="Oval" fill="#CEB89B" fill-rule="nonzero" cx="136.09" cy="114.92" r="79.92"></circle>
                <circle id="Oval" fill="#E2D3BC" fill-rule="nonzero" cx="140.58" cy="109.18" r="74.36"></circle>
                <path d="M117.8,129.52 C117.8,143.509373 129.140627,154.85 143.13,154.85 C157.119373,154.85 168.46,143.509373 168.46,129.52 L117.8,129.52 Z" id="Path" fill="#FFFFFF" fill-rule="nonzero"></path>
                <path d="M92.25,42.54 C89.44,35.37 90.25,20.54 147.5,26.19 C199.75,31.32 203.63,52.19 222.01,67.68 C214.84,69.23 212.67,114.39 207.59,103.58 C173.49,30.97 95.81,51.62 92.25,42.54 Z" id="Path" fill="#875631" fill-rule="nonzero"></path>
                <circle id="Oval" fill="#3D2722" fill-rule="nonzero" cx="107.31" cy="97.12" r="9.58"></circle>
                <circle id="Oval" fill="#3D2722" fill-rule="nonzero" cx="174.18" cy="97.12" r="9.58"></circle>
                <ellipse id="Oval" fill="#E2D3BC" fill-rule="nonzero" cx="60.2" cy="105.39" rx="11.05" ry="19.4"></ellipse>
                <path d="M249.75,160.4 L280.48,73.57 C282.65,69.15 291.04,54.07 291.48,49.17 C292.19,40.9 291.18,16.34 295.48,9.52 C299.48,3.11 303.35,4.76 303.35,14.15 C303.35,23.54 302.8,51.07 302.8,58.75 C302.8,66.43 296.39,81.8 296.39,81.8 L282.88,142.33 L249.75,160.4 Z" id="Path" fill="#E2D3BC" fill-rule="nonzero"></path>
            </g>
        </g>
    </g>
</svg>