<?xml version="1.0" encoding="UTF-8"?>
<svg width="680px" height="592px" viewBox="0 0 680 592" version="1.1" xmlns="http://www.w3.org/2000/svg" xmlns:xlink="http://www.w3.org/1999/xlink">
    <!-- Generator: Sketch 54.1 (76490) - https://sketchapp.com -->
    <title>illustration-feedback</title>
    <desc>Created with Sketch.</desc>
    <g id="illustration-feedback" stroke="none" stroke-width="1" fill="none" fill-rule="evenodd">
        <g id="old-lady" transform="translate(190.500000, 367.000000) scale(-1, 1) translate(-190.500000, -367.000000) translate(52.000000, 142.000000)">
            <path d="M146.223713,263 C146.223713,263 150.199885,323.515689 154.176057,327.644902 C158.152229,331.774115 204.096892,355.304702 212.009474,358.979503 C226.542381,365.71664 242.069332,377.472055 247.795019,390.096778 C255.647958,407.26561 277,450 277,450 L228.093088,450 L218.013493,434.1944 L210.737099,450 L0,450 C0,450 14.7515969,404.756471 22.2267997,390.175806 C29.0260533,376.899102 40.2189765,360.026624 55.2687863,351.906498 C63.8374363,347.28336 97.714419,332.149498 99.0066748,327.743687 C100.298931,323.337876 104.970932,264.303962 104.970932,264.303962 L146.223713,263 Z" id="Path" fill="#755D56" fill-rule="nonzero"></path>
            <path d="M99,313.088562 C115.776809,317.319805 133.437619,316.932392 150,311.969813 C147.409524,292.892194 145.446429,263 145.446429,263 L103.290476,264.295394 C103.290476,264.295394 100.841667,294.403487 99,313.088562 Z" id="Path" fill="#604D49" fill-rule="nonzero"></path>
            <circle id="Oval" fill="#E7E9EB" fill-rule="nonzero" cx="159.5" cy="49.5" r="49.5"></circle>
            <path d="M120.589089,45 C99.958129,82.1657303 103.60565,128.031188 129.853076,161.489241 C156.100501,194.947293 199.862522,209.515608 241,198.489894 C221.127425,250.725864 166.197208,280.876281 111.312461,269.673547 C56.4277135,258.470812 17.7930317,209.222507 20.0978779,153.400722 C22.402724,97.578937 64.9665976,51.6649255 120.589089,45 Z" id="Path" fill="#E7E9EB" fill-rule="nonzero"></path>
            <ellipse id="Oval" fill="#806E63" fill-rule="nonzero" cx="43" cy="190.5" rx="24" ry="23.5"></ellipse>
            <path d="M28,206 L37,216" id="Path" stroke="#49A8F6" stroke-width="2.8376235" stroke-linecap="round"></path>
            <path d="M29,207 L29,223" id="Path" stroke="#49A8F6" stroke-width="2.8376235" stroke-linecap="round"></path>
            <circle id="Oval" fill="#755D56" fill-rule="nonzero" cx="123" cy="198" r="91"></circle>
            <ellipse id="Oval" fill="#806E63" fill-rule="nonzero" cx="118" cy="191.5" rx="84" ry="84.5"></ellipse>
            <circle id="Oval" fill="#3D2722" fill-rule="nonzero" cx="154.5" cy="167.5" r="11.5"></circle>
            <circle id="Oval" fill="#3D2722" fill-rule="nonzero" cx="70.5" cy="167.5" r="11.5"></circle>
            <path d="M140,203 C139.203536,218.135515 126.679912,230 111.5,230 C96.3200878,230 83.7964644,218.135515 83,203 L140,203 Z" id="Path" fill="#E7E9EB" fill-rule="nonzero"></path>
            <ellipse id="Oval" fill="#806E63" fill-rule="nonzero" cx="207" cy="197.5" rx="24" ry="23.5"></ellipse>
            <path d="M194.086947,350.590087 C222.089245,363.035957 240.3862,374.951798 247.784535,390.479689 C255.918725,407.420991 277,450 277,450 L228.174971,450 L218.091758,434.295432 L210.812751,450 L0,450 C0,450 14.7568926,405.045675 22.2347789,390.558212 C29.0364733,377.366375 42.4210942,356.20447 62.1300976,349 C95.6214819,373.715063 139.315408,379.466861 194.086947,350.590087 Z" id="Path" fill="#49A8F6" fill-rule="nonzero"></path>
            <path d="M106.019912,97.1072792 C105.996775,79.1682601 110.561485,61.5203778 119.281585,45.8355845 C151.692382,41.8932444 184.239829,52.0223657 208.666387,73.6531119 C233.092945,95.2838582 247.051209,126.337503 246.999859,158.935496 C247.007536,172.753223 244.490562,186.456455 239.572525,199.372342 C207.720474,207.916765 173.699791,201.179615 147.525647,181.144207 C121.351503,161.108798 106.003554,130.055955 106,97.1271597 L106.019912,97.1072792 Z" id="Path" fill="#E7E9EB" fill-rule="nonzero"></path>
            <path d="M29,206 L19,216" id="Path" stroke="#49A8F6" stroke-width="2.8376235" stroke-linecap="round"></path>
            <path d="M213,214 L213,230" id="Path" stroke="#49A8F6" stroke-width="2.8376235" stroke-linecap="round"></path>
            <path d="M213,214 L203,224" id="Path" stroke="#49A8F6" stroke-width="2.8376235" stroke-linecap="round"></path>
            <path d="M213,214 L222,224" id="Path" stroke="#49A8F6" stroke-width="2.8376235" stroke-linecap="round"></path>
            <path d="M167,332 C167,344.155722 149.117184,354 127.039389,354 C104.961595,354 87,344.155722 87,332" id="Path" stroke="#FFFF00" stroke-width="1.23823565" stroke-linecap="round" stroke-linejoin="round"></path>
            <g id="Group" transform="translate(48.000000, 330.000000)" fill="#E7E9EB" fill-rule="nonzero">
                <ellipse id="Oval" cx="14.6040531" cy="22.0334483" rx="14.1475905" ry="14.0731034"></ellipse>
                <ellipse id="Oval" cx="36.6948439" cy="34.7503448" rx="14.1475905" ry="14.0731034"></ellipse>
                <ellipse id="Oval" cx="62.2434954" cy="41.2758621" rx="14.1475905" ry="14.0731034"></ellipse>
                <ellipse id="Oval" cx="88.1280534" cy="42.632069" rx="14.1475905" ry="14.0731034"></ellipse>
                <ellipse id="Oval" cx="113.340799" cy="37.4824138" rx="14.1475905" ry="14.0731034"></ellipse>
                <ellipse id="Oval" cx="133.356873" cy="27.1831034" rx="14.1475905" ry="14.0731034"></ellipse>
                <ellipse id="Oval" cx="146.378189" cy="14.4858621" rx="14.1475905" ry="14.0731034"></ellipse>
            </g>
        </g>
        <ellipse id="Oval" fill="#CEE1F2" cx="496" cy="217" rx="150" ry="100"></ellipse>
        <path d="M346.067274,316.841489 C382.824602,315.028255 411.642865,297.882974 411.642865,277 C411.642865,265.138913 402.346095,254.483606 387.578249,247.158511 C389.705254,247.053586 391.858842,247 394.034968,247 C433.817312,247 466.067274,264.90861 466.067274,287 C466.067274,309.09139 433.817312,327 394.034968,327 C375.61216,327 358.804689,323.159455 346.067278,316.841489 Z" id="Combined-Shape" fill="#CEE1F2"></path>
    </g>
</svg>