<svg xmlns="http://www.w3.org/2000/svg" viewBox="0 0 82.38 75.5"><title>img-connectivity</title><g id="Layer_2" data-name="Layer 2"><g id="Layer_1-2" data-name="Layer 1"><path d="M32.06,0C14.35,0,0,5.35,0,11.94V63.56C0,70.15,14.35,75.5,32.06,75.5s32.06-5.35,32.06-11.94V11.94C64.12,5.35,49.77,0,32.06,0Z" style="fill:#380089"/><path d="M5.28,15c5.35,4,15.34,6.73,26.78,6.73S53.5,19,58.85,15C53.5,11,43.51,8.27,32.06,8.27S10.63,11,5.28,15Z" style="fill:#ebe5f3"/><path d="M72.38,23H61.58v8.36h8.2a4.33,4.33,0,0,1,4.33,4.33v6.58a4.33,4.33,0,0,1-4.33,4.33h-8.2V55h10.8a10,10,0,0,0,10-10V33A10,10,0,0,0,72.38,23Z" style="fill:#380089"/></g></g></svg>