<svg xmlns="http://www.w3.org/2000/svg" viewBox="0 0 119.03 106.86"><title>img-customer-stories</title><g id="Layer_2" data-name="Layer 2"><g id="Layer_1-2" data-name="Layer 1"><path d="M37.61,67.59a25,25,0,1,1,25-25A25,25,0,0,1,37.61,67.59Z" style="fill:#380089"/><path d="M37.61,19.68a23,23,0,1,1-23,23,23,23,0,0,1,23-23m0-4a27,27,0,1,0,27,27,27,27,0,0,0-27-27Z" style="fill:#ebe5f3"/><path d="M69.72,106.86H5.5a4,4,0,0,1-4-3.43L.21,94.21A20,20,0,0,1,20,71.35H55.22A20,20,0,0,1,75,94.21l-1.33,9.23A4,4,0,0,1,69.72,106.86Z" style="fill:#380089"/><path d="M93.64,0c-14,0-25.38,8.27-25.38,18.46,0,4.74,2.46,9.07,6.5,12.34,1.5,4.71-5.17,8.54-5.17,8.54s10.15.51,12.89-4.3a33.29,33.29,0,0,0,11.16,1.88c14,0,25.38-8.27,25.38-18.46S107.66,0,93.64,0Z" style="fill:#380089"/><circle cx="93.64" cy="17.97" r="2.77" style="fill:#ebe5f3"/><circle cx="83.75" cy="17.97" r="2.77" style="fill:#ebe5f3"/><circle cx="103.53" cy="17.97" r="2.77" style="fill:#ebe5f3"/></g></g></svg>