<?xml version="1.0" encoding="UTF-8"?>
<svg width="570px" height="285px" viewBox="0 0 570 285" version="1.1" xmlns="http://www.w3.org/2000/svg" xmlns:xlink="http://www.w3.org/1999/xlink">
    <!-- Generator: Sketch 47 (45396) - http://www.bohemiancoding.com/sketch -->
    <title>blue-apron-logo-padding</title>
    <desc>Created with Sketch.</desc>
    <defs></defs>
    <g id="Page-1" stroke="none" stroke-width="1" fill="none" fill-rule="evenodd">
        <g id="blue-apron-logo-padding" fill="#0F346C">
            <g id="full-logo" transform="translate(125.000000, 68.000000)">
                <path d="M317.27145,118.766412 L317.27145,102.05313 C317.27145,97.6512977 316.272366,94.1312977 314.276641,91.4955725 C312.276031,88.8574046 309.366718,87.5407634 305.531603,87.5407634 C301.757557,87.5407634 297.954198,89.2262595 294.123969,92.5972519 C292.975878,89.3361832 290.733435,87.7044275 287.391756,87.7044275 L282.547786,87.7044275 L281.976183,88.2760305 L281.976183,128.957557 C282.904427,129.123664 283.915725,129.245802 285.014962,129.326412 C287.254309,129.49304 289.502943,129.49304 291.74229,129.326412 C292.839084,129.245802 293.850382,129.123664 294.778626,128.96 L294.778626,101.725802 C295.877863,100.74626 296.940458,100.040305 297.983511,99.6054962 C299.021679,99.170687 299.952366,98.9508397 300.775573,98.9508397 C302.192366,98.9508397 303.152366,99.3880916 303.648244,100.25771 C304.139237,101.129771 304.383511,102.485496 304.383511,104.337099 L304.383511,121.700153 C304.383511,124.362748 304.903817,126.348702 305.941985,127.65313 C306.985038,128.955115 308.92458,129.607328 311.772824,129.607328 C314.672366,129.607328 317.161527,128.686412 319.242748,126.837252 C317.92855,125.044275 317.27145,122.352366 317.27145,118.766412 L317.27145,118.766412 Z M263.494351,117.503511 C262.724885,119.596947 261.129771,120.642443 258.704122,120.642443 C257.490076,120.642443 256.512977,120.371298 255.767939,119.826565 C255.027786,119.284275 254.448855,118.45374 254.033588,117.339847 C253.618321,116.225954 253.34229,114.843359 253.203053,113.18229 C253.054419,111.21541 252.985965,109.243292 252.997863,107.27084 C252.997863,105.805191 253.083359,104.429924 253.247023,103.154809 C253.41313,101.877252 253.716031,100.748702 254.155725,99.7716031 C254.597863,98.7920611 255.19145,98.0177099 255.934046,97.4509924 C256.679084,96.8769466 257.656183,96.591145 258.870229,96.591145 C261.183511,96.591145 262.724885,97.6122137 263.494351,99.6494656 C264.268702,101.686718 264.657099,104.661985 264.657099,108.57771 C264.657099,112.437252 264.26626,115.412519 263.494351,117.503511 Z M258.82626,87.0522137 C255.763053,87.0522137 253.051603,87.5700763 250.701679,88.600916 C248.413337,89.5843667 246.388956,91.0932378 244.792672,93.0051908 C243.204885,94.9080916 242.000611,97.1774046 241.177405,99.810687 C240.359084,102.448855 239.948702,105.397252 239.948702,108.655878 C239.948702,111.863206 240.359084,114.799389 241.177405,117.461985 C242.000611,120.12458 243.219542,122.396336 244.831756,124.272366 C246.450505,126.15052 248.470806,127.6407 250.743206,128.632672 C253.068702,129.665954 255.763053,130.181374 258.82626,130.181374 C261.889466,130.181374 264.600916,129.680611 266.953282,128.671756 C269.303206,127.670229 271.291603,126.229008 272.90626,124.350534 C274.520916,122.476947 275.752061,120.207634 276.599695,117.545038 C277.447328,114.882443 277.869924,111.916947 277.869924,108.655878 C277.869924,101.376489 275.901069,95.7752672 271.960916,91.8619847 C268.621679,88.6570992 264.241832,87.0522137 258.82626,87.0522137 L258.82626,87.0522137 Z M234.860458,87.7044275 C230.099542,87.7044275 226.677252,90.1496183 224.600916,95.0424427 C222.629618,90.4745038 219.124275,88.0048855 214.092214,87.621374 C213.322748,88.2198473 212.558168,89.1847328 211.791145,90.5160305 C211.029008,91.849771 210.50626,93.0564885 210.232672,94.1435115 C212.309008,95.7215267 213.352061,98.5477863 213.352061,102.624733 L213.352061,128.957557 C215.210992,129.282443 217.358168,129.44855 219.796031,129.44855 C222.23145,129.44855 224.351756,129.282443 226.159389,128.96 L226.159389,103.599389 C227.908397,100.82687 230.153282,99.4442748 232.891603,99.4442748 C234.748092,99.6592366 236.145344,99.9328244 237.076031,100.25771 C238.060458,98.6259542 238.839695,96.6570992 239.41374,94.3462595 C239.990229,92.0378626 240.276031,90.0396947 240.276031,88.3541985 C238.087328,87.9169466 236.279695,87.7019847 234.860458,87.7019847 L234.860458,87.7044275 Z M189.711145,120.315115 C188.235725,120.315115 186.457405,119.694656 184.376183,118.441527 L184.376183,100.504427 C186.07145,98.3303817 188.072061,97.2433588 190.370687,97.2433588 C193.651298,97.2433588 195.295267,100.829313 195.295267,108.006107 C195.295267,116.21374 193.433893,120.317557 189.711145,120.317557 L189.711145,120.315115 Z M204.621679,92.839084 C203.400305,90.9923664 201.910229,89.5682443 200.166107,88.5618321 C198.419542,87.5529771 196.399389,87.0522137 194.108092,87.0522137 C189.637863,87.0522137 185.844275,88.600916 182.732214,91.7007634 C181.203053,89.0381679 178.872672,87.7044275 175.758168,87.7044275 L172.389618,87.7044275 L171.818015,88.2760305 L171.818015,145.998168 L172.389618,146.567328 L177.316641,146.567328 C179.945038,146.567328 181.774656,145.998168 182.81771,144.857405 C183.855878,143.716641 184.376183,141.730687 184.376183,138.90687 L184.376183,128.061069 C186.887328,129.201832 189.393588,129.773435 191.90229,129.773435 C194.247328,129.773435 196.418931,129.270229 198.407328,128.26626 C200.429194,127.235628 202.201583,125.775866 203.600611,123.989008 C205.076031,122.137405 206.233893,119.882748 207.079084,117.21771 C207.924275,114.555115 208.34687,111.594504 208.34687,108.330992 C208.34687,105.069924 208.031756,102.136183 207.406412,99.5273282 C206.778626,96.9160305 205.847939,94.690687 204.621679,92.839084 L204.621679,92.839084 Z M148.138015,106.987481 C147.454046,106.960611 146.975267,106.943511 146.699237,106.943511 L140.709618,106.943511 L137.424122,107.026565 L139.312366,100.748702 C141.501069,92.7071756 142.815267,87.5163359 143.252519,85.178626 L143.745954,85.178626 C145.441221,91.810687 146.945954,97.4045802 148.25771,101.970076 L149.652519,107.026565 C149.327634,107.026565 148.821985,107.011908 148.138015,106.987481 L148.138015,106.987481 Z M144.073282,72.7841221 C141.229924,72.7841221 138.738321,72.9477863 136.603359,73.2726718 L118.546565,127.980458 L118.952061,128.632672 C120.598473,129.231145 122.730992,129.531603 125.359389,129.531603 C127.709313,129.531603 129.543817,129.365496 130.855573,129.043053 L134.387786,117.220153 C135.096183,117.27145 136.19542,117.300763 137.67084,117.300763 L149.327634,117.300763 C150.749313,117.300763 151.816794,117.27145 152.527634,117.21771 L154.08855,122.601527 C154.909313,125.371603 155.896183,127.245191 157.044275,128.224733 C158.192366,129.201832 160.190534,129.692824 163.036336,129.692824 C165.442443,129.692824 167.604275,129.177405 169.519389,128.144122 L151.792366,73.3532824 C149.872366,72.9746565 147.300153,72.7841221 144.073282,72.7841221 L144.073282,72.7841221 Z M243.344122,30.7737405 C244.18687,29.5499237 245.474198,28.9392366 247.213435,28.9392366 C249.006412,28.9392366 250.347481,29.5914504 251.243969,30.8934351 C252.138015,32.1978626 252.592366,33.8564885 252.592366,35.869313 L252.592366,36.7658015 L241.832061,36.7658015 C241.998168,33.9932824 242.498931,31.9975573 243.341679,30.7737405 L243.344122,30.7737405 Z M232.847634,56.8207634 C234.319933,58.7962732 236.267687,60.3675851 238.509924,61.3887023 C240.837863,62.4732824 243.725191,63.0180153 247.171908,63.0180153 C253.518168,63.0180153 258.882443,61.469313 263.259847,58.3694656 C262.822595,55.2183206 261.70626,52.7169466 259.908397,50.870229 C257.673282,51.7105344 255.697099,52.3138931 253.98229,52.6827481 C252.262595,53.0491603 250.748092,53.2348092 249.438779,53.2348092 C246.825038,53.2348092 244.944122,52.5606107 243.796031,51.2146565 C242.652824,49.871145 242.027481,47.990229 241.92,45.5719084 L263.264733,45.5719084 C263.97313,43.2854962 264.327328,40.4885496 264.327328,37.1737405 C264.327328,34.6723664 263.931603,32.3615267 263.13771,30.2412214 C262.394158,28.2033342 261.233545,26.3430254 259.730076,24.7792366 C258.204936,23.2264121 256.375319,22.0055588 254.356031,21.1932824 C252.247939,20.3236641 249.880916,19.888855 247.254962,19.888855 C244.13313,19.888855 241.409466,20.431145 239.088855,21.5181679 C236.846508,22.5385656 234.877055,24.0744548 233.341069,26.0006107 C231.836336,27.9035115 230.715115,30.1483969 229.974962,32.7303817 C229.234809,35.3099237 228.865954,38.1215267 228.865954,41.1676336 C228.865954,44.3187786 229.166412,47.2280916 229.769771,49.890687 C230.37313,52.5532824 231.399084,54.8641221 232.847634,56.8207634 L232.847634,56.8207634 Z M189.303206,48.0146565 C189.303206,52.4164885 190.299847,55.9389313 192.298015,58.5722137 C194.29374,61.2103817 197.210382,62.5294656 201.043053,62.5294656 C204.868397,62.5294656 208.947786,60.5996947 213.27145,56.7401527 C215.240305,60.3822901 218.469618,62.2827481 222.956947,62.448855 C223.77771,61.8503817 224.571603,60.9099237 225.336183,59.6299237 C226.103206,58.3596947 226.623511,57.1749618 226.899542,56.0879389 C225.365496,55.0546565 224.600916,53.071145 224.600916,50.1349618 L224.600916,21.110229 C222.683359,20.7829008 220.521527,20.6216794 218.11542,20.6216794 C215.704427,20.6216794 213.596336,20.7829008 211.793588,21.110229 L211.793588,48.339542 C209.932214,50.1887023 208.09771,51.1120611 206.297405,51.1120611 C204.433588,51.1120611 203.283053,50.6796947 202.843359,49.8100763 C202.403664,48.940458 202.191145,47.5529771 202.191145,45.6500763 L202.191145,28.3676336 C202.191145,25.7050382 201.67084,23.719084 200.627786,22.4146565 C199.589618,21.110229 197.620763,20.4580153 194.718779,20.4580153 C191.819237,20.4580153 189.359389,21.3569466 187.334351,23.1499237 C188.646107,25.0528244 189.303206,27.7667176 189.303206,31.301374 L189.303206,48.0146565 L189.303206,48.0146565 Z M187.251298,61.381374 C187.414962,60.8317557 187.500458,59.6519084 187.500458,57.8442748 C187.500458,56.0366412 187.168244,54.2265649 186.513588,52.4164885 L184.295573,52.4164885 C181.88458,52.4164885 180.682748,51.1438168 180.682748,48.5935878 L180.682748,9.43877863 C180.682748,6.61984733 180.164885,4.63877863 179.124275,3.49557252 C178.083664,2.35725191 176.276031,1.78564885 173.703817,1.78564885 L168.701069,1.78564885 L168.205191,2.35725191 L168.205191,50.870229 C168.205191,54.7835115 168.98687,57.6512977 170.547786,59.4687023 C172.10626,61.2909924 174.744427,62.1996947 178.467176,62.1996947 C181.039389,62.1996947 183.965802,61.9285496 187.251298,61.381374 L187.251298,61.381374 Z M137.096794,37.2519084 L143.870534,37.2519084 C146.75542,37.2519084 148.865954,38.0384733 150.197252,39.6140458 C151.533435,41.1920611 152.200305,43.0412214 152.200305,45.159084 C152.200305,47.389313 151.682443,49.1261069 150.646718,50.3767939 C149.682754,51.5875916 148.326352,52.4238957 146.811603,52.741374 C145.186958,53.0768524 143.527589,53.2138343 141.869924,53.149313 C140.279382,53.0927903 138.687335,53.0927903 137.096794,53.149313 L137.096794,37.2519084 L137.096794,37.2519084 Z M137.096794,14.8323664 C137.802748,14.8861069 138.63084,14.9129771 139.585954,14.9129771 L142.88855,14.9129771 C145.441221,14.9129771 147.261069,15.5236641 148.350534,16.7450382 C149.437557,17.9664122 149.987176,19.5053435 149.987176,21.3545038 C149.987176,23.2012214 149.452214,24.7645802 148.392061,26.0421374 C147.334351,27.3196947 145.497405,27.9572519 142.88855,27.9572519 L137.099237,27.9572519 L137.099237,14.8323664 L137.096794,14.8323664 Z M136.769466,62.1972519 C140.10626,62.2534351 142.788397,62.2803053 144.810992,62.2803053 C151.377099,62.2803053 156.45313,60.9343511 160.041527,58.2448855 C163.625038,55.5529771 165.415573,51.4100763 165.415573,45.8112977 C165.415573,44.2332824 165.154198,42.7016794 164.638779,41.2042748 C164.129463,39.7321818 163.427157,38.3341403 162.550229,37.0467176 C161.680351,35.7739775 160.616223,34.6455566 159.396641,33.7025954 C158.232247,32.7862537 156.914817,32.0832938 155.505344,31.6262595 C157.632977,30.7029008 159.377099,29.2079389 160.742595,27.141374 C162.079539,25.168277 162.792718,22.8389567 162.789618,20.4555725 C162.789618,15.5114504 161.079695,11.8033588 157.659847,9.32641221 C154.24,6.85435115 149.547481,5.61343511 143.58229,5.61343511 C141.667176,5.61343511 139.136489,5.64763359 135.990229,5.6989313 C132.841527,5.75267176 129.052824,5.83328244 124.619237,5.94320611 L124.045191,6.51236641 L124.045191,61.3862595 L124.619237,61.9554198 C129.380153,62.0653435 133.430229,62.1483969 136.769466,62.1996947 L136.769466,62.1972519 Z M74.3938931,2.31328244 C70.8173189,1.31287366 67.1809155,0.540229725 63.5065649,8.67838456e-15 L62.0653435,24.0561832 L38.1654962,24.0561832 L36.7291603,0 C33.0161832,0.549618321 29.391145,1.32396947 25.8467176,2.32061069 C24.3615267,17.7196947 29.3276336,55.7874809 0,73.9712977 L0,124.250382 C0,124.250382 17.8051908,143.269618 50.1251908,143.269618 C82.4329771,143.269618 100.240611,123.026565 100.240611,123.026565 L100.240611,73.9712977 C70.9032061,55.7874809 75.8668702,17.7148092 74.3938931,2.31328244 Z" id="Shape"></path>
            </g>
        </g>
    </g>
</svg>