<?xml version="1.0" encoding="UTF-8"?>
<svg width="720px" height="540px" viewBox="0 0 720 540" version="1.1" xmlns="http://www.w3.org/2000/svg" xmlns:xlink="http://www.w3.org/1999/xlink">
    <!-- Generator: Sketch 55 (78076) - https://sketchapp.com -->
    <title>engOB-illustration-02</title>
    <desc>Created with Sketch.</desc>
    <defs>
        <path d="M105.059567,0 L102.703971,44.9090426 L52.6711191,58.2781915 C33.166787,63.5505319 18.2794224,79.3675532 14.3220217,99.1388298 L0.659566787,167.30266 L42.2122744,167.30266 L50.7866426,127.854255 L52.2942238,167.30266 L207.763538,167.30266 L210.119134,127.289362 L217.280144,167.30266 L260.623105,167.30266 L245.264621,98.6680851 C240.836101,79.1792553 225.854513,63.7388298 206.444404,58.8430851 L151.41769,44.9090426 L146.141155,2.3537234 L105.059567,0 Z" id="path-1"></path>
    </defs>
    <g id="engOB-illustration-02" stroke="none" stroke-width="1" fill="none" fill-rule="evenodd">
        <g id="DON020_Illustrations_01-10" transform="translate(0.000000, 137.000000)">
            <rect id="Rectangle" fill="#42210B" fill-rule="nonzero" x="226" y="372" width="465" height="32"></rect>
            <g id="Group" fill-rule="nonzero">
                <polygon id="Path" fill="#1420B2" points="156.291892 265.92529 101.556757 265.92529 101.556757 253.302552 156.291892 254.621346"></polygon>
                <ellipse id="Oval" fill="#DB5A24" cx="114.557529" cy="116.242227" rx="113.898069" ry="116.242227"></ellipse>
                <path d="M150.545174,211.10116 L151.958301,279.113225 C151.958301,279.113225 197.649421,309.539675 204.432432,312.742459 C211.309653,315.945244 216.114286,316.793039 225.440927,322.916009 C234.767568,329.038979 237.405405,405.246404 237.405405,405.246404 L12.0586873,405.246404 C12.0586873,405.246404 14.0370656,342.038515 16.580695,335.444548 C19.1243243,328.85058 29.9583012,316.322042 37.6833977,312.930858 C45.4084942,309.539675 103.25251,281.185615 103.25251,281.185615 L112.673359,222.028306 L150.545174,211.10116 Z" id="Path" fill="#CBA87D"></path>
                <path d="M158.081853,276.946636 C158.081853,276.946636 197.649421,309.539675 204.526641,312.742459 C211.403861,315.945244 216.208494,316.793039 225.535135,322.916009 C234.861776,329.038979 243.340541,405.246404 243.340541,405.246404 L4.42779923,405.246404 C4.42779923,405.246404 13.9428571,342.038515 16.580695,335.444548 C19.2185328,328.85058 29.9583012,316.322042 37.6833977,312.930858 C45.4084942,309.539675 98.9189189,281.562413 98.9189189,281.562413 L130.196139,297.387935 L158.081853,276.946636 Z" id="Path" fill="#3E48C0"></path>
                <path d="M108.999228,245.012993 C115.405405,246.708585 122.094208,247.65058 129.065637,247.65058 C136.790734,247.65058 144.138996,246.520186 151.204633,244.447796 L150.545174,211.10116 L112.767568,222.028306 L108.999228,245.012993 Z" id="Path" fill="#B28E66"></path>
                <ellipse id="Oval" fill="#CBA87D" cx="129.065637" cy="148.27007" rx="78.6640927" ry="78.6566125"></ellipse>
                <ellipse id="Oval" fill="#DDC497" cx="134.623938" cy="142.806497" rx="73.2" ry="73.1930394"></ellipse>
                <path d="M110.12973,154.958237 C110.12973,168.711369 121.246332,179.921114 135.094981,179.921114 C148.849421,179.921114 160.060232,168.805568 160.060232,154.958237 L110.12973,154.958237 Z" id="Path" fill="#E7E9EB"></path>
                <path d="M156.291892,254.621346 L157.987645,276.946636 L134.058687,297.670534 L131.703475,405.152204 L124.355212,405.152204 L126.522008,297.199536 L98.7305019,281.374014 L101.462548,253.208353 C101.462548,253.208353 116.535907,263.664501 118.89112,265.360093 C124.543629,269.316473 137.827027,268.845476 143.479537,264.889095 C146.305792,263.005104 156.291892,254.621346 156.291892,254.621346 Z" id="Path" fill="#1420B2"></path>
                <ellipse id="Oval" fill="#3D2722" cx="172.213127" cy="124.908585" rx="10.4571429" ry="10.4561485"></ellipse>
                <ellipse id="Oval" fill="#3D2722" cx="100.897297" cy="124.908585" rx="10.4571429" ry="10.4561485"></ellipse>
            </g>
            <g id="Group" transform="translate(264.000000, 157.000000)" fill-rule="nonzero">
                <rect id="Rectangle" fill="#E6E6E6" x="104.82907" y="175.677632" width="33.8127907" height="33.8530702"></rect>
                <path d="M242.905814,158.798246 L0.565116279,158.798246 L0.565116279,183.315789 C0.565116279,185.95614 2.6372093,188.030702 5.2744186,188.030702 L238.196512,188.030702 C240.833721,188.030702 242.905814,185.95614 242.905814,183.315789 L242.905814,158.798246 L242.905814,158.798246 Z" id="Path" fill="#DCDCDC"></path>
                <path d="M238.196512,0.0942982456 L5.2744186,0.0942982456 C2.6372093,0.0942982456 0.565116279,2.16885965 0.565116279,4.80921053 L0.565116279,158.515351 L242.905814,158.515351 L242.905814,4.80921053 C242.905814,2.26315789 240.833721,0.0942982456 238.196512,0.0942982456 Z" id="Path" fill="#000000"></path>
                <rect id="Rectangle" fill="#333333" x="14.3162791" y="15.4649123" width="214.744186" height="131.16886"></rect>
                <path d="M151.827907,209.530702 L91.5488372,209.530702 C90.5127907,209.530702 89.6651163,210.379386 89.6651163,211.416667 L89.6651163,214.528509 L153.711628,214.528509 L153.711628,211.416667 C153.711628,210.379386 152.863953,209.530702 151.827907,209.530702 Z" id="Path" fill="#DCDCDC"></path>
            </g>
            <g id="Group" transform="translate(458.000000, 53.000000)">
                <ellipse id="Oval" fill="#875631" fill-rule="nonzero" cx="154.150181" cy="33.893617" rx="33.3552347" ry="33.3287234"></ellipse>
                <g transform="translate(0.000000, 24.478723)">
                    <ellipse id="Oval" fill="#875631" fill-rule="nonzero" cx="129.746209" cy="79.7441489" rx="76.9808664" ry="76.9196809"></ellipse>
                    <ellipse id="Oval" fill="#CEB89B" fill-rule="nonzero" cx="126.542599" cy="89.1590426" rx="78.6768953" ry="78.6143617"></ellipse>
                    <ellipse id="Oval" fill="#E2D3BC" fill-rule="nonzero" cx="122.208303" cy="83.5101064" rx="73.2119134" ry="73.1537234"></ellipse>
                    <path d="M144.633574,103.56383 C144.633574,117.309574 133.515162,128.513298 119.66426,128.513298 C105.907581,128.513298 94.6949458,117.403723 94.6949458,103.56383 L144.633574,103.56383 Z" id="Path" fill="#FFFFFF" fill-rule="nonzero"></path>
                    <path d="M169.791336,17.9824468 C172.523827,10.9212766 171.770036,-3.67180851 115.424188,1.88297872 C63.9779783,6.96702128 60.1148014,27.4914894 42.0238267,42.743617 C49.0906137,44.25 51.2577617,88.6882979 56.2516245,78.0494681 C89.7953069,6.59042553 166.21083,26.9265957 169.791336,17.9824468 Z" id="Path" fill="#875631" fill-rule="nonzero"></path>
                    <ellipse id="Oval" fill="#3D2722" fill-rule="nonzero" cx="154.903971" cy="71.6473404" rx="9.42238267" ry="9.41489362"></ellipse>
                    <ellipse id="Oval" fill="#3D2722" fill-rule="nonzero" cx="89.0415162" cy="71.6473404" rx="9.42238267" ry="9.41489362"></ellipse>
                    <ellipse id="Oval" fill="#E2D3BC" fill-rule="nonzero" cx="201.262094" cy="79.8382979" rx="10.8357401" ry="19.112234"></ellipse>
                    <g id="Group-2" transform="translate(0.000000, 160.429787)">
                        <mask id="mask-2" fill="white">
                            <use xlink:href="#path-1"></use>
                        </mask>
                        <use id="Mask" fill="#CEB89B" fill-rule="nonzero" xlink:href="#path-1"></use>
                        <g id="Group" mask="url(#mask-2)" fill-rule="nonzero">
                            <g transform="translate(-6.595668, 14.687234)" id="Rectangle">
                                <polygon fill="#D71C24" transform="translate(202.067142, 92.087451) rotate(-180.000000) translate(-202.067142, -92.087451) " points="190.242052 0.0568659274 213.892233 0.0568659274 213.892233 184.118036 190.242052 184.118036"></polygon>
                                <polygon fill="#006838" transform="translate(166.636534, 92.087451) rotate(-180.000000) translate(-166.636534, -92.087451) " points="154.811443 0.0568659295 178.461624 0.0568659295 178.461624 184.118036 154.811443 184.118036"></polygon>
                                <polygon fill="#A51C24" transform="translate(184.446062, 92.087451) rotate(-180.000000) translate(-184.446062, -92.087451) " points="178.557073 0.0568659287 190.335051 0.0568659287 190.335051 184.118036 178.557073 184.118036"></polygon>
                                <polygon fill="#FFFFFF" transform="translate(150.236688, 92.087451) rotate(-180.000000) translate(-150.236688, -92.087451) " points="144.347699 0.0568659302 156.125677 0.0568659302 156.125677 184.118036 144.347699 184.118036"></polygon>
                                <polygon fill="#D0D0D0" transform="translate(150.236688, 92.087451) rotate(-180.000000) translate(-150.236688, -92.087451) " points="144.347699 0.0568659302 156.125677 0.0568659302 156.125677 184.118036 144.347699 184.118036"></polygon>
                                <polygon fill="#D71C24" transform="translate(271.707125, 92.087451) rotate(-180.000000) translate(-271.707125, -92.087451) " points="259.882034 0.0568659248 283.532215 0.0568659248 283.532215 184.118036 259.882034 184.118036"></polygon>
                                <polygon fill="#006838" transform="translate(236.276516, 92.087451) rotate(-180.000000) translate(-236.276516, -92.087451) " points="224.451426 0.0568659258 248.101606 0.0568659258 248.101606 184.118036 224.451426 184.118036"></polygon>
                                <polygon fill="#A51C24" transform="translate(253.991820, 92.087451) rotate(-180.000000) translate(-253.991820, -92.087451) " points="248.102831 0.0568659256 259.880809 0.0568659256 259.880809 184.118036 248.102831 184.118036"></polygon>
                                <polygon fill="#FFFFFF" transform="translate(219.876670, 92.087451) rotate(-180.000000) translate(-219.876670, -92.087451) " points="213.987681 0.0568659271 225.76566 0.0568659271 225.76566 184.118036 213.987681 184.118036"></polygon>
                                <polygon fill="#D0D0D0" transform="translate(219.876670, 92.087451) rotate(-180.000000) translate(-219.876670, -92.087451) " points="213.987681 0.0568659271 225.76566 0.0568659271 225.76566 184.118036 213.987681 184.118036"></polygon>
                                <polygon fill="#D71C24" transform="translate(62.998710, 92.087451) rotate(-180.000000) translate(-62.998710, -92.087451) " points="51.1736199 0.0568659341 74.8238004 0.0568659341 74.8238004 184.118036 51.1736199 184.118036"></polygon>
                                <polygon fill="#006838" transform="translate(27.567913, 92.087451) rotate(-180.000000) translate(-27.567913, -92.087451) " points="15.7428228 0.0568659357 39.3930033 0.0568659357 39.3930033 184.118036 15.7428228 184.118036"></polygon>
                                <polygon fill="#A51C24" transform="translate(45.377441, 92.087451) rotate(-180.000000) translate(-45.377441, -92.087451) " points="39.488452 0.0568659349 51.2664303 0.0568659349 51.2664303 184.118036 39.488452 184.118036"></polygon>
                                <polygon fill="#FFFFFF" transform="translate(11.168162, 92.087451) rotate(-180.000000) translate(-11.168162, -92.087451) " points="5.27917258 0.0568659364 17.0571509 0.0568659364 17.0571509 184.118036 5.27917258 184.118036"></polygon>
                                <polygon fill="#D0D0D0" transform="translate(11.168162, 92.087451) rotate(-180.000000) translate(-11.168162, -92.087451) " points="5.27917258 0.0568659364 17.0571509 0.0568659364 17.0571509 184.118036 5.27917258 184.118036"></polygon>
                                <polygon fill="#D71C24" transform="translate(132.638692, 92.087451) rotate(-180.000000) translate(-132.638692, -92.087451) " points="120.813602 0.0568659305 144.463783 0.0568659305 144.463783 184.118036 120.813602 184.118036"></polygon>
                                <polygon fill="#006838" transform="translate(97.207895, 92.087451) rotate(-180.000000) translate(-97.207895, -92.087451) " points="85.3828051 0.0568659326 109.032986 0.0568659326 109.032986 184.118036 85.3828051 184.118036"></polygon>
                                <polygon fill="#A51C24" transform="translate(114.923200, 92.087451) rotate(-180.000000) translate(-114.923200, -92.087451) " points="109.03421 0.0568659318 120.812189 0.0568659318 120.812189 184.118036 109.03421 184.118036"></polygon>
                                <polygon fill="#FFFFFF" transform="translate(80.808238, 92.087451) rotate(-180.000000) translate(-80.808238, -92.087451) " points="74.9192491 0.0568659333 86.6972275 0.0568659333 86.6972275 184.118036 74.9192491 184.118036"></polygon>
                                <polygon fill="#D0D0D0" transform="translate(80.808238, 92.087451) rotate(-180.000000) translate(-80.808238, -92.087451) " points="74.9192491 0.0568659333 86.6972275 0.0568659333 86.6972275 184.118036 74.9192491 184.118036"></polygon>
                                <polygon fill="#FFFF00" style="mix-blend-mode: multiply;" transform="translate(142.937734, 46.790138) rotate(90.000000) translate(-142.937734, -46.790138) " points="136.064861 -95.3936162 149.810606 -95.3936162 149.810606 188.973893 136.064861 188.973893"></polygon>
                                <polygon fill="#49A8F6" style="mix-blend-mode: multiply;" transform="translate(142.979380, 60.577403) rotate(90.000000) translate(-142.979380, -60.577403) " points="136.106508 -81.6063519 149.852253 -81.6063519 149.852253 202.761157 136.106508 202.761157"></polygon>
                                <polygon fill="#FFFF00" style="mix-blend-mode: multiply;" transform="translate(142.983432, 108.409205) rotate(90.000000) translate(-142.983432, -108.409205) " points="136.11056 -33.7745497 149.856304 -33.7745497 149.856304 250.592959 136.11056 250.592959"></polygon>
                                <polygon fill="#49A8F6" style="mix-blend-mode: multiply;" transform="translate(142.930761, 122.196469) rotate(90.000000) translate(-142.930761, -122.196469) " points="136.057889 -19.9872854 149.803633 -19.9872854 149.803633 264.380224 136.057889 264.380224"></polygon>
                            </g>
                        </g>
                    </g>
                    <path d="M151.545096,205.371092 L126.259928,225.957447 L102.708692,205.248832 L105.059567,160.429787 L146.141155,162.783511 L151.41769,205.33883 L151.545096,205.371092 Z" id="Combined-Shape" fill="#CEB89B" fill-rule="nonzero"></path>
                </g>
            </g>
            <g id="Group" transform="translate(219.000000, 259.000000)">
                <path d="M13.4037383,142.227586 L55.5971963,69.5586207 C58.1457944,65.2229885 64.9420561,50.4252874 65.6971963,45.4298851 C67.0186916,37.0413793 79.1953271,20.1701149 84.1037383,13.4781609 C88.6345794,7.16321839 99.5841121,26.4850575 98.9233645,36.0988506 C98.2626168,45.7126437 80.7056075,53.1586207 80.1392523,60.9816092 C79.5728972,68.8045977 76.7411215,80.6804598 76.7411215,80.6804598 L53.8037383,145.055172 L13.4037383,142.227586 Z" id="Path" fill="#DDC497" fill-rule="nonzero"></path>
                <polygon id="Path" fill="#1420B2" fill-rule="nonzero" points="0.188785047 163.245977 50.9719626 156.365517 78.1570093 102.358621 52.1990654 62.3954023"></polygon>
                <path d="M100.905607,0.848275862 C95.3364486,6.03218391 86.935514,13.0068966 81.0831776,21.0183908 C76.4579439,27.4275862 74.9476636,41.5655172 74.9476636,41.5655172" id="Path" stroke="#DDC497" stroke-width="10.6275" stroke-linecap="round"></path>
            </g>
            <path d="M371.717296,221.48459 C363.7148,229.795898 363.055771,256.996541 386.592524,259.168814 C404.574603,260.868855 432.536265,276.358109 426.981591,282.402697 C421.426918,288.447284 385.274466,311.492273 349.027867,279.097063 C333.117022,264.930062 316.547148,228.568091 347.144927,197.778475 C377.742705,166.988858 426.510856,182.478113 440.350467,212.795496 C454.472518,243.396219 432.442118,280.135976 426.887444,282.402697 C421.332771,284.763864 391.017433,259.452154 391.017433,259.452154 C391.017433,259.452154 417.096155,252.651994 408.528777,228.756985 C401.561898,209.300969 379.908086,212.98439 371.717296,221.48459 Z" id="Path"></path>
            <g id="Group" transform="translate(330.000000, 180.000000)" fill="#00D1BD" font-family="Helvetica" font-size="3" font-weight="normal">
                <text id="Nulla">
                    <tspan x="50.9268293" y="3.88333333">Null</tspan>
                    <tspan x="50.9268293" y="7.88333333">a</tspan>
                </text>
                <text id="m">
                    <tspan x="63.0926829" y="3.88333333">m</tspan>
                </text>
                <text id="id">
                    <tspan x="37.2520325" y="7.27333333">id</tspan>
                </text>
                <text id="dolor">
                    <tspan x="47.2487805" y="7.27333333">dolo</tspan>
                    <tspan x="47.2487805" y="11.2733333">r</tspan>
                </text>
                <text id="id">
                    <tspan x="62.3382114" y="7.27333333">id</tspan>
                </text>
                <text id="nibh">
                    <tspan x="72.2406504" y="7.27333333">nib</tspan>
                    <tspan x="72.2406504" y="11.2733333">h</tspan>
                </text>
                <text id="ultricies">
                    <tspan x="30.0845528" y="10.6633333">ultricies</tspan>
                </text>
                <text id="vehicula">
                    <tspan x="48.5691057" y="10.6633333">vehicula</tspan>
                </text>
                <text id="ut">
                    <tspan x="65.2617886" y="10.6633333">ut</tspan>
                </text>
                <text id="id">
                    <tspan x="71.7691057" y="10.6633333">id</tspan>
                </text>
                <text id="elit.">
                    <tspan x="78.2764228" y="10.6633333">elit.</tspan>
                </text>
                <text id="Aenean">
                    <tspan x="24.803252" y="14.0533333">Aenean</tspan>
                </text>
                <text id="eu">
                    <tspan x="36.9691057" y="14.0533333">eu</tspan>
                </text>
                <text id="leo">
                    <tspan x="42.3447154" y="14.0533333">leo</tspan>
                </text>
                <text id="quam.">
                    <tspan x="49.4178862" y="14.0533333">quam.</tspan>
                </text>
                <text id="Pellentesque">
                    <tspan x="59.8861789" y="14.0533333">Pellentesqu</tspan>
                    <tspan x="59.8861789" y="18.0533333">e</tspan>
                </text>
                <text id="ornare">
                    <tspan x="82.2373984" y="14.0533333">ornar</tspan>
                    <tspan x="82.2373984" y="18.0533333">e</tspan>
                </text>
                <text id="sem">
                    <tspan x="20.5593496" y="17.4433333">se</tspan>
                    <tspan x="20.5593496" y="21.4433333">m</tspan>
                </text>
                <text id="lacinia">
                    <tspan x="30.2731707" y="17.4433333">lacini</tspan>
                    <tspan x="30.2731707" y="21.4433333">a</tspan>
                </text>
                <text id="quam">
                    <tspan x="46.8715447" y="17.4433333">quam</tspan>
                </text>
                <text id="venenatis">
                    <tspan x="58.2829268" y="17.4433333">venenati</tspan>
                    <tspan x="58.2829268" y="21.4433333">s</tspan>
                </text>
                <text id="vestibulum.">
                    <tspan x="78.2764228" y="17.4433333">vestibulum</tspan>
                    <tspan x="78.2764228" y="21.4433333">.</tspan>
                </text>
                <text id="Praesent">
                    <tspan x="16.9756098" y="20.8333333">Praesent</tspan>
                </text>
                <text id="commodo">
                    <tspan x="33.3853659" y="20.8333333">commodo</tspan>
                </text>
                <text id="cursus">
                    <tspan x="48.1918699" y="20.8333333">cursu</tspan>
                    <tspan x="48.1918699" y="24.8333333">s</tspan>
                </text>
                <text id="magna,">
                    <tspan x="61.2065041" y="20.8333333">magna,</tspan>
                </text>
                <text id="vel">
                    <tspan x="74.2211382" y="20.8333333">ve</tspan>
                    <tspan x="74.2211382" y="24.8333333">l</tspan>
                </text>
                <text id="scelerisque">
                    <tspan x="82.0487805" y="20.8333333">scelerisqu</tspan>
                    <tspan x="82.0487805" y="24.8333333">e</tspan>
                </text>
                <text id="nisl">
                    <tspan x="13.8634146" y="24.2233333">nisl</tspan>
                </text>
                <text id="consectetur">
                    <tspan x="25.0861789" y="24.2233333">consectetu</tspan>
                    <tspan x="25.0861789" y="28.2233333">r</tspan>
                </text>
                <text id="et.">
                    <tspan x="48.1918699" y="24.2233333">et.</tspan>
                </text>
                <text id="Curabitur">
                    <tspan x="57.7170732" y="24.2233333">Curabitu</tspan>
                    <tspan x="57.7170732" y="28.2233333">r</tspan>
                </text>
                <text id="blandit">
                    <tspan x="77.4276423" y="24.2233333">blandi</tspan>
                    <tspan x="77.4276423" y="28.2233333">t</tspan>
                </text>
                <text id="tempus">
                    <tspan x="93.7430894" y="24.2233333">tempu</tspan>
                    <tspan x="93.7430894" y="28.2233333">s</tspan>
                </text>
                <text id="porttitor.">
                    <tspan x="11.2227642" y="27.6133333">porttitor</tspan>
                    <tspan x="11.2227642" y="31.6133333">.</tspan>
                </text>
                <text id="Donec">
                    <tspan x="31.3105691" y="27.6133333">Done</tspan>
                    <tspan x="31.3105691" y="31.6133333">c</tspan>
                </text>
                <text id="ullamcorper">
                    <tspan x="43.004878" y="27.6133333">ullamcorpe</tspan>
                    <tspan x="43.004878" y="31.6133333">r</tspan>
                </text>
                <text id="nulla">
                    <tspan x="64.8845528" y="27.6133333">nulla</tspan>
                </text>
                <text id="non">
                    <tspan x="76.5788618" y="27.6133333">non</tspan>
                </text>
                <text id="metus">
                    <tspan x="84.7837398" y="27.6133333">metus</tspan>
                </text>
                <text id="auctor">
                    <tspan x="96.3837398" y="27.6133333">auctor</tspan>
                </text>
                <text id="fringilla.">
                    <tspan x="8.77073171" y="31.0033333">fringilla.</tspan>
                </text>
                <text id="Vestibulum">
                    <tspan x="27.5382114" y="31.0033333">Vestibulu</tspan>
                    <tspan x="27.5382114" y="35.0033333">m</tspan>
                </text>
                <text id="id">
                    <tspan x="46.2113821" y="31.0033333">id</tspan>
                </text>
                <text id="ligula">
                    <tspan x="51.2097561" y="31.0033333">ligula</tspan>
                </text>
                <text id="porta">
                    <tspan x="63.0926829" y="31.0033333">port</tspan>
                    <tspan x="63.0926829" y="35.0033333">a</tspan>
                </text>
                <text id="felis">
                    <tspan x="73.1837398" y="31.0033333">felis</tspan>
                </text>
                <text id="euismod">
                    <tspan x="83.3691057" y="31.0033333">euismo</tspan>
                    <tspan x="83.3691057" y="35.0033333">d</tspan>
                </text>
                <text id="semper.">
                    <tspan x="96.9495935" y="31.0033333">semper</tspan>
                    <tspan x="96.9495935" y="35.0033333">.</tspan>
                </text>
                <text id="Aenean">
                    <tspan x="6.7902439" y="34.3933333">Aenean</tspan>
                </text>
                <text id="lacinia">
                    <tspan x="18.4845528" y="34.3933333">lacini</tspan>
                    <tspan x="18.4845528" y="38.3933333">a</tspan>
                </text>
                <text id="bibendum">
                    <tspan x="31.8764228" y="34.3933333">bibendum</tspan>
                </text>
                <text id="nulla">
                    <tspan x="47.0601626" y="34.3933333">nulla</tspan>
                </text>
                <text id="sed">
                    <tspan x="57.0569106" y="34.3933333">se</tspan>
                    <tspan x="57.0569106" y="38.3933333">d</tspan>
                </text>
                <text id="consectetur.">
                    <tspan x="63.6585366" y="34.3933333">consectetur</tspan>
                    <tspan x="63.6585366" y="38.3933333">.</tspan>
                </text>
                <text id="Nullam">
                    <tspan x="85.5382114" y="34.3933333">Nullam</tspan>
                </text>
                <text id="id">
                    <tspan x="97.3268293" y="34.3933333">id</tspan>
                </text>
                <text id="dolor">
                    <tspan x="102.136585" y="34.3933333">dolo</tspan>
                    <tspan x="102.136585" y="38.3933333">r</tspan>
                </text>
                <text id="id">
                    <tspan x="5.09268293" y="37.7833333">id</tspan>
                </text>
                <text id="nibh">
                    <tspan x="17.3528455" y="37.7833333">nib</tspan>
                    <tspan x="17.3528455" y="41.7833333">h</tspan>
                </text>
                <text id="ultricies">
                    <tspan x="33.0081301" y="37.7833333">ultricies</tspan>
                </text>
                <text id="vehicula">
                    <tspan x="69.8829268" y="37.7833333">vehicula</tspan>
                </text>
                <text id="ut">
                    <tspan x="87.9902439" y="37.7833333">ut</tspan>
                </text>
                <text id="id">
                    <tspan x="95.8178862" y="37.7833333">id</tspan>
                </text>
                <text id="elit.">
                    <tspan x="103.645528" y="37.7833333">elit.</tspan>
                </text>
                <text id="Donec">
                    <tspan x="3.67804878" y="41.1733333">Done</tspan>
                    <tspan x="3.67804878" y="45.1733333">c</tspan>
                </text>
                <text id="id">
                    <tspan x="15.1837398" y="41.1733333">id</tspan>
                </text>
                <text id="elit">
                    <tspan x="21.6910569" y="41.1733333">eli</tspan>
                    <tspan x="21.6910569" y="45.1733333">t</tspan>
                </text>
                <text id="non">
                    <tspan x="31.499187" y="41.1733333">non</tspan>
                </text>
                <text id="mi">
                    <tspan x="39.704065" y="41.1733333">mi</tspan>
                </text>
                <text id="porta">
                    <tspan x="74.2211382" y="41.1733333">port</tspan>
                    <tspan x="74.2211382" y="45.1733333">a</tspan>
                </text>
                <text id="gravida">
                    <tspan x="85.5382114" y="41.1733333">gravid</tspan>
                    <tspan x="85.5382114" y="45.1733333">a</tspan>
                </text>
                <text id="at">
                    <tspan x="100.344715" y="41.1733333">at</tspan>
                </text>
                <text id="eget">
                    <tspan x="106.569106" y="41.1733333">ege</tspan>
                    <tspan x="106.569106" y="45.1733333">t</tspan>
                </text>
                <text id="metus.">
                    <tspan x="2.45203252" y="44.5633333">metus.</tspan>
                </text>
                <text id="Maecenas">
                    <tspan x="26.6894309" y="44.5633333">Maecena</tspan>
                    <tspan x="26.6894309" y="48.5633333">s</tspan>
                </text>
                <text id="faucibus">
                    <tspan x="76.8617886" y="44.5633333">faucibus</tspan>
                </text>
                <text id="mollis">
                    <tspan x="104.022764" y="44.5633333">molli</tspan>
                    <tspan x="104.022764" y="48.5633333">s</tspan>
                </text>
                <text id="interdum.">
                    <tspan x="1.60325203" y="47.9533333">interdum</tspan>
                    <tspan x="1.60325203" y="51.9533333">.</tspan>
                </text>
                <text id="Morbi">
                    <tspan x="21.0308943" y="47.9533333">Morbi</tspan>
                </text>
                <text id="leo">
                    <tspan x="33.5739837" y="47.9533333">leo</tspan>
                </text>
                <text id="risus,">
                    <tspan x="78.5593496" y="47.9533333">risus,</tspan>
                </text>
                <text id="porta">
                    <tspan x="95.9121951" y="47.9533333">port</tspan>
                    <tspan x="95.9121951" y="51.9533333">a</tspan>
                </text>
                <text id="ac">
                    <tspan x="111.56748" y="47.9533333">ac</tspan>
                </text>
                <text id="consectetur">
                    <tspan x="0.943089431" y="51.3433333">consectetu</tspan>
                    <tspan x="0.943089431" y="55.3433333">r</tspan>
                </text>
                <text id="ac,">
                    <tspan x="32.6308943" y="51.3433333">ac,</tspan>
                </text>
                <text id="vestibulum">
                    <tspan x="79.7853659" y="51.3433333">vestibulu</tspan>
                    <tspan x="79.7853659" y="55.3433333">m</tspan>
                </text>
                <text id="at">
                    <tspan x="100.156098" y="51.3433333">at</tspan>
                </text>
                <text id="eros.">
                    <tspan x="106.852033" y="51.3433333">eros</tspan>
                    <tspan x="106.852033" y="55.3433333">.</tspan>
                </text>
                <text id="Morbi">
                    <tspan x="0.565853659" y="54.7333333">Morbi</tspan>
                </text>
                <text id="leo">
                    <tspan x="10.5626016" y="54.7333333">leo</tspan>
                </text>
                <text id="risus,">
                    <tspan x="17.0699187" y="54.7333333">risus,</tspan>
                </text>
                <text id="porta">
                    <tspan x="28.7642276" y="54.7333333">port</tspan>
                    <tspan x="28.7642276" y="58.7333333">a</tspan>
                </text>
                <text id="ac">
                    <tspan x="80.5398374" y="54.7333333">ac</tspan>
                </text>
                <text id="consectetur">
                    <tspan x="87.895935" y="54.7333333">consectetu</tspan>
                    <tspan x="87.895935" y="58.7333333">r</tspan>
                </text>
                <text id="ac,">
                    <tspan x="110.530081" y="54.7333333">ac,</tspan>
                </text>
                <text id="vestibulum">
                    <tspan x="0.471544715" y="58.1233333">vestibulu</tspan>
                    <tspan x="0.471544715" y="62.1233333">m</tspan>
                </text>
                <text id="at">
                    <tspan x="21.3138211" y="58.1233333">at</tspan>
                </text>
                <text id="eros.">
                    <tspan x="28.6699187" y="58.1233333">eros</tspan>
                    <tspan x="28.6699187" y="62.1233333">.</tspan>
                </text>
                <text id="Maecenas">
                    <tspan x="80.8227642" y="58.1233333">Maecena</tspan>
                    <tspan x="80.8227642" y="62.1233333">s</tspan>
                </text>
                <text id="faucibus">
                    <tspan x="101.947967" y="58.1233333">faucibus</tspan>
                </text>
                <text id="mollis">
                    <tspan x="0.660162602" y="61.5133333">molli</tspan>
                    <tspan x="0.660162602" y="65.5133333">s</tspan>
                </text>
                <text id="interdum.">
                    <tspan x="13.0146341" y="61.5133333">interdum</tspan>
                    <tspan x="13.0146341" y="65.5133333">.</tspan>
                </text>
                <text id="Duis">
                    <tspan x="30.4617886" y="61.5133333">Duis</tspan>
                </text>
                <text id="mollis,">
                    <tspan x="80.8227642" y="61.5133333">mollis</tspan>
                    <tspan x="80.8227642" y="65.5133333">,</tspan>
                </text>
                <text id="est">
                    <tspan x="98.9300813" y="61.5133333">est</tspan>
                </text>
                <text id="non">
                    <tspan x="110.247154" y="61.5133333">non</tspan>
                </text>
                <text id="commodo">
                    <tspan x="1.03739837" y="64.9033333">commodo</tspan>
                </text>
                <text id="luctus,">
                    <tspan x="16.0325203" y="64.9033333">luctus</tspan>
                    <tspan x="16.0325203" y="68.9033333">,</tspan>
                </text>
                <text id="nisi">
                    <tspan x="30.9333333" y="64.9033333">nisi</tspan>
                </text>
                <text id="erat">
                    <tspan x="80.2569106" y="64.9033333">erat</tspan>
                </text>
                <text id="porttitor">
                    <tspan x="99.6845528" y="64.9033333">porttitor</tspan>
                </text>
                <text id="ligula,">
                    <tspan x="1.69756098" y="68.2933333">ligula</tspan>
                    <tspan x="1.69756098" y="72.2933333">,</tspan>
                </text>
                <text id="eget">
                    <tspan x="16.7869919" y="68.2933333">ege</tspan>
                    <tspan x="16.7869919" y="72.2933333">t</tspan>
                </text>
                <text id="lacinia">
                    <tspan x="26.8780488" y="68.2933333">lacini</tspan>
                    <tspan x="26.8780488" y="72.2933333">a</tspan>
                </text>
                <text id="odio">
                    <tspan x="79.0308943" y="68.2933333">odi</tspan>
                    <tspan x="79.0308943" y="72.2933333">o</tspan>
                </text>
                <text id="sem">
                    <tspan x="89.1219512" y="68.2933333">se</tspan>
                    <tspan x="89.1219512" y="72.2933333">m</tspan>
                </text>
                <text id="nec">
                    <tspan x="97.5154472" y="68.2933333">ne</tspan>
                    <tspan x="97.5154472" y="72.2933333">c</tspan>
                </text>
                <text id="elit.">
                    <tspan x="105.908943" y="68.2933333">elit.</tspan>
                </text>
                <text id="Fusce">
                    <tspan x="2.54634146" y="71.6833333">Fusce</tspan>
                </text>
                <text id="dapibus,">
                    <tspan x="13.7691057" y="71.6833333">dapibus</tspan>
                    <tspan x="13.7691057" y="75.6833333">,</tspan>
                </text>
                <text id="tellus">
                    <tspan x="30.1788618" y="71.6833333">tellus</tspan>
                </text>
                <text id="ac">
                    <tspan x="76.9560976" y="71.6833333">ac</tspan>
                </text>
                <text id="cursus">
                    <tspan x="85.0666667" y="71.6833333">cursu</tspan>
                    <tspan x="85.0666667" y="75.6833333">s</tspan>
                </text>
                <text id="commodo,">
                    <tspan x="100.061789" y="71.6833333">commodo,</tspan>
                </text>
                <text id="tortor">
                    <tspan x="3.58373984" y="75.0733333">tortor</tspan>
                </text>
                <text id="mauris">
                    <tspan x="32.7252033" y="75.0733333">mauris</tspan>
                </text>
                <text id="condimentum">
                    <tspan x="73.8439024" y="75.0733333">condimentu</tspan>
                    <tspan x="73.8439024" y="79.0733333">m</tspan>
                </text>
                <text id="nibh,">
                    <tspan x="96.7609756" y="75.0733333">nibh,</tspan>
                </text>
                <text id="ut">
                    <tspan x="109.398374" y="75.0733333">ut</tspan>
                </text>
                <text id="fermentum">
                    <tspan x="4.90406504" y="78.4633333">fermentu</tspan>
                    <tspan x="4.90406504" y="82.4633333">m</tspan>
                </text>
                <text id="massa">
                    <tspan x="21.8796748" y="78.4633333">mass</tspan>
                    <tspan x="21.8796748" y="82.4633333">a</tspan>
                </text>
                <text id="justo">
                    <tspan x="31.9707317" y="78.4633333">justo</tspan>
                </text>
                <text id="sit">
                    <tspan x="42.1560976" y="78.4633333">si</tspan>
                    <tspan x="42.1560976" y="82.4633333">t</tspan>
                </text>
                <text id="amet">
                    <tspan x="69.0341463" y="78.4633333">ame</tspan>
                    <tspan x="69.0341463" y="82.4633333">t</tspan>
                </text>
                <text id="risus.">
                    <tspan x="82.7089431" y="78.4633333">risus.</tspan>
                </text>
                <text id="Vivamus">
                    <tspan x="99.7788618" y="78.4633333">Vivamu</tspan>
                    <tspan x="99.7788618" y="82.4633333">s</tspan>
                </text>
                <text id="sagittis">
                    <tspan x="6.41300813" y="81.8533333">sagittis</tspan>
                </text>
                <text id="lacus">
                    <tspan x="21.596748" y="81.8533333">lacus</tspan>
                </text>
                <text id="vel">
                    <tspan x="31.7821138" y="81.8533333">ve</tspan>
                    <tspan x="31.7821138" y="85.8533333">l</tspan>
                </text>
                <text id="augue">
                    <tspan x="38.4780488" y="81.8533333">augue</tspan>
                </text>
                <text id="laoreet">
                    <tspan x="48.5691057" y="81.8533333">laoreet</tspan>
                </text>
                <text id="rutrum">
                    <tspan x="61.7723577" y="81.8533333">rutru</tspan>
                    <tspan x="61.7723577" y="85.8533333">m</tspan>
                </text>
                <text id="faucibus">
                    <tspan x="73.4666667" y="81.8533333">faucibus</tspan>
                </text>
                <text id="dolor">
                    <tspan x="88.5560976" y="81.8533333">dolo</tspan>
                    <tspan x="88.5560976" y="85.8533333">r</tspan>
                </text>
                <text id="auctor.">
                    <tspan x="98.5528455" y="81.8533333">auctor.</tspan>
                </text>
                <text id="Aenean">
                    <tspan x="8.20487805" y="85.2433333">Aenean</tspan>
                </text>
                <text id="lacinia">
                    <tspan x="20.6536585" y="85.2433333">lacini</tspan>
                    <tspan x="20.6536585" y="89.2433333">a</tspan>
                </text>
                <text id="bibendum">
                    <tspan x="34.8943089" y="85.2433333">bibendum</tspan>
                </text>
                <text id="nulla">
                    <tspan x="50.7382114" y="85.2433333">nulla</tspan>
                </text>
                <text id="sed">
                    <tspan x="61.4894309" y="85.2433333">se</tspan>
                    <tspan x="61.4894309" y="89.2433333">d</tspan>
                </text>
                <text id="consectetur.">
                    <tspan x="68.8455285" y="85.2433333">consectetur</tspan>
                    <tspan x="68.8455285" y="89.2433333">.</tspan>
                </text>
                <text id="Cras">
                    <tspan x="91.5739837" y="85.2433333">Cras</tspan>
                </text>
                <text id="justo">
                    <tspan x="100.627642" y="85.2433333">justo</tspan>
                </text>
                <text id="odio,-dapibus-ac-facilisis-in,-egestas-eget-quam.">
                    <tspan x="17.1642276" y="88.6333333">odio, dapibus ac facilisis in, egestas eget </tspan>
                    <tspan x="17.1642276" y="92.6333333">quam.</tspan>
                </text>
                <text id="Cum">
                    <tspan x="12.6373984" y="92.0233333">Cum</tspan>
                </text>
                <text id="sociis">
                    <tspan x="19.899187" y="92.0233333">sociis</tspan>
                </text>
                <text id="natoque">
                    <tspan x="32.2536585" y="92.0233333">natoqu</tspan>
                    <tspan x="32.2536585" y="96.0233333">e</tspan>
                </text>
                <text id="penatibus">
                    <tspan x="46.3056911" y="92.0233333">penatibus</tspan>
                </text>
                <text id="et">
                    <tspan x="63.7528455" y="92.0233333">et</tspan>
                </text>
                <text id="magnis">
                    <tspan x="69.2227642" y="92.0233333">magni</tspan>
                    <tspan x="69.2227642" y="96.0233333">s</tspan>
                </text>
                <text id="dis">
                    <tspan x="81.5772358" y="92.0233333">di</tspan>
                    <tspan x="81.5772358" y="96.0233333">s</tspan>
                </text>
                <text id="parturient">
                    <tspan x="88.8390244" y="92.0233333">parturien</tspan>
                    <tspan x="88.8390244" y="96.0233333">t</tspan>
                </text>
                <text id="montes,">
                    <tspan x="15.4666667" y="95.4133333">montes</tspan>
                    <tspan x="15.4666667" y="99.4133333">,</tspan>
                </text>
                <text id="nascetur">
                    <tspan x="30.1788618" y="95.4133333">nascetu</tspan>
                    <tspan x="30.1788618" y="99.4133333">r</tspan>
                </text>
                <text id="ridiculus">
                    <tspan x="46.5886179" y="95.4133333">ridiculus</tspan>
                </text>
                <text id="mus.">
                    <tspan x="64.7902439" y="95.4133333">mus.</tspan>
                </text>
                <text id="Morbi">
                    <tspan x="74.4097561" y="95.4133333">Morbi</tspan>
                </text>
                <text id="leo">
                    <tspan x="85.7268293" y="95.4133333">leo</tspan>
                </text>
                <text id="risus,">
                    <tspan x="93.6487805" y="95.4133333">risus,</tspan>
                </text>
                <text id="porta">
                    <tspan x="18.6731707" y="98.8033333">port</tspan>
                    <tspan x="18.6731707" y="102.803333">a</tspan>
                </text>
                <text id="ac">
                    <tspan x="28.8585366" y="98.8033333">ac</tspan>
                </text>
                <text id="consectetur">
                    <tspan x="33.8569106" y="98.8033333">consectetu</tspan>
                    <tspan x="33.8569106" y="102.803333">r</tspan>
                </text>
                <text id="ac,">
                    <tspan x="54.2276423" y="98.8033333">ac,</tspan>
                </text>
                <text id="vestibulum">
                    <tspan x="60.9235772" y="98.8033333">vestibulu</tspan>
                    <tspan x="60.9235772" y="102.803333">m</tspan>
                </text>
                <text id="at">
                    <tspan x="79.596748" y="98.8033333">at</tspan>
                </text>
                <text id="eros.">
                    <tspan x="84.595122" y="98.8033333">eros</tspan>
                    <tspan x="84.595122" y="102.803333">.</tspan>
                </text>
                <text id="Cras">
                    <tspan x="94.7804878" y="98.8033333">Cras</tspan>
                </text>
                <text id="justo">
                    <tspan x="22.6341463" y="102.193333">justo</tspan>
                </text>
                <text id="odio,">
                    <tspan x="33.0081301" y="102.193333">odio,</tspan>
                </text>
                <text id="dapibus">
                    <tspan x="43.3821138" y="102.193333">dapibu</tspan>
                    <tspan x="43.3821138" y="106.193333">s</tspan>
                </text>
                <text id="ac">
                    <tspan x="57.1512195" y="102.193333">ac</tspan>
                </text>
                <text id="facilisis">
                    <tspan x="62.4325203" y="102.193333">facilisi</tspan>
                    <tspan x="62.4325203" y="106.193333">s</tspan>
                </text>
                <text id="in,">
                    <tspan x="79.596748" y="102.193333">in,</tspan>
                </text>
                <text id="egestas">
                    <tspan x="86.5756098" y="102.193333">egesta</tspan>
                    <tspan x="86.5756098" y="106.193333">s</tspan>
                </text>
                <text id="eget">
                    <tspan x="27.2552846" y="105.583333">ege</tspan>
                    <tspan x="27.2552846" y="109.583333">t</tspan>
                </text>
                <text id="quam.">
                    <tspan x="36.497561" y="105.583333">quam.</tspan>
                </text>
                <text id="Vivamus">
                    <tspan x="47.5317073" y="105.583333">Vivamu</tspan>
                    <tspan x="47.5317073" y="109.583333">s</tspan>
                </text>
                <text id="sagittis">
                    <tspan x="61.9609756" y="105.583333">sagittis</tspan>
                </text>
                <text id="lacus">
                    <tspan x="78.0878049" y="105.583333">lacus</tspan>
                </text>
                <text id="vel">
                    <tspan x="89.1219512" y="105.583333">ve</tspan>
                    <tspan x="89.1219512" y="109.583333">l</tspan>
                </text>
                <text id="augue">
                    <tspan x="32.7252033" y="108.973333">augue</tspan>
                </text>
                <text id="laoreet">
                    <tspan x="45.1739837" y="108.973333">laoreet</tspan>
                </text>
                <text id="rutrum">
                    <tspan x="61.0178862" y="108.973333">rutru</tspan>
                    <tspan x="61.0178862" y="112.973333">m</tspan>
                </text>
                <text id="faucibus">
                    <tspan x="75.1642276" y="108.973333">faucibus</tspan>
                </text>
                <text id="dolor-auctor.">
                    <tspan x="49.5121951" y="112.363333">dolor </tspan>
                    <tspan x="49.5121951" y="116.363333">auctor.</tspan>
                </text>
            </g>
        </g>
    </g>
</svg>