<?xml version="1.0" encoding="utf-8"?>
<!-- Generator: Adobe Illustrator 23.0.4, SVG Export Plug-In . SVG Version: 6.00 Build 0)  -->
<svg version="1.1" id="Layer_1" xmlns="http://www.w3.org/2000/svg" xmlns:xlink="http://www.w3.org/1999/xlink" x="0px" y="0px" width="720" height="580"
	 viewBox="0 0 720 580" style="enable-background:new 0 0 720 580;" xml:space="preserve">
<style type="text/css">
	.st0{fill:#E6D821;}
	.st1{fill:#755D56;}
	.st2{fill:#604D49;}
	.st3{fill:#806E63;}
	.st4{fill:#3D2722;}
	.st5{fill:#E7E9EB;}
	.st6{fill:#FF9EFF;}
	.st7{opacity:0.5;clip-path:url(#SVGID_2_);fill:#FFFFFF;}
	.st8{fill:#6D401B;}
	.st9{fill:#D5B386;}
	.st10{opacity:0.81;fill:#A7815F;}
	.st11{fill:none;stroke:#FFFF00;stroke-width:2.078;stroke-miterlimit:10;}
	.st12{fill:#DDC497;}
	.st13{fill:#00D1BD;}
</style>
<g>
	<g>
		<circle class="st0" cx="176.7" cy="374.3" r="114.4"/>
		<circle class="st0" cx="139.7" cy="264.7" r="51"/>
		<circle class="st0" cx="109.9" cy="324.7" r="51"/>
		<circle class="st0" cx="94.6" cy="384.6" r="51"/>
		<circle class="st0" cx="116.9" cy="424.6" r="51"/>
		<circle class="st0" cx="138.4" cy="452.8" r="51"/>
		<circle class="st0" cx="210" cy="455.4" r="51"/>
		<circle class="st0" cx="239.5" cy="423.6" r="51"/>
		<circle class="st0" cx="258.4" cy="382.3" r="51"/>
		<circle class="st0" cx="267.8" cy="340.6" r="51"/>
		<circle class="st0" cx="268.4" cy="282.1" r="51"/>
		<circle class="st0" cx="245.8" cy="240.9" r="51"/>
		<circle class="st0" cx="191.9" cy="233" r="51"/>
		<path class="st1" d="M195.6,412.2c0,0,3.4,53.9,7,57.6c3.7,3.9,46.1,25.9,53.1,29.1c12.9,6,26.6,16.5,31.7,27.7
			c6.9,15.3,25.8,53.3,25.8,53.3H270l-14.7-26.6l-0.7,26.6H117.1l-1.9-21.2l-9.8,21.2H68.2c0,0,13.1-40.3,19.7-53.3
			c6-11.8,15.9-26.8,29.2-34.1c7.6-4.1,40.4-20,41.5-23.9c1.1-3.9,5.2-56.5,5.2-56.5H195.6z"/>
		<path class="st0" d="M198.7,194.2c-7.5,13.4-11.7,28.9-11.7,45.4c0,51.7,41.9,93.7,93.7,93.7c8.4,0,16.6-1.1,24.3-3.2
			c-14.4,38-51.2,65-94.2,65c-55.7,0-100.8-45.1-100.8-100.8C109.9,242.7,148.7,200.2,198.7,194.2z"/>
		<path class="st2" d="M199.2,453.3c-4,0.7-8.4,1-12.6,1c-9.2,0-17.9-1.1-26.1-4.2c1-13.8,3.1-37.9,3.1-37.9h31.9
			C195.5,412.2,197.7,436.5,199.2,453.3z"/>
		<circle class="st1" cx="201.8" cy="343.1" r="80.6"/>
		<circle class="st3" cx="207.5" cy="337.4" r="75"/>
		<circle class="st4" cx="174.4" cy="315.7" r="10"/>
		<circle class="st4" cx="249.6" cy="315.7" r="10"/>
		<path class="st5" d="M186.9,347.4c0,14.1,11.4,25.5,25.5,25.5s25.5-11.4,25.5-25.5H186.9z"/>
		<path class="st0" d="M186.9,239.6c0-16.5,4.3-31.9,11.7-45.4c3.9-0.5,8-0.7,12-0.7c55.7,0,100.8,45.1,100.8,100.8
			c0,12.6-2.3,24.6-6.6,35.8c-7.8,2.1-15.9,3.2-24.3,3.2C228.9,333.2,186.9,291.3,186.9,239.6z"/>
		<circle class="st3" cx="124.8" cy="336.8" r="20.8"/>
		<circle class="st1" cx="124.8" cy="336.8" r="7.9"/>
		<path class="st6" d="M231.5,486.8c5.7,2.9,10.2,5.2,12.1,6.1c7.3,23.8,11.7,60.5,11.7,60.5l-0.7,26.6H117.1l-1.9-21.2
			c0,0-0.9-39.3,1.9-66.1c2.1-1.2,6.3-3.3,11.1-5.7C160.3,525.5,209.8,515.2,231.5,486.8z"/>
		<g>
			<defs>
				<path id="SVGID_1_" d="M231.5,486.8c5.7,2.9,10.2,5.2,12.1,6.1c7.3,23.8,11.7,60.5,11.7,60.5l-0.7,26.6H117.1l-1.9-21.2
					c0,0-0.9-39.3,1.9-66.1c2.1-1.2,6.3-3.3,11.1-5.7C160.3,525.5,209.8,515.2,231.5,486.8z"/>
			</defs>
			<clipPath id="SVGID_2_">
				<use xlink:href="#SVGID_1_"  style="overflow:visible;"/>
			</clipPath>
			<circle class="st7" cx="134.8" cy="542.2" r="6.7"/>
			<circle class="st7" cx="168.5" cy="536.2" r="6.7"/>
			<circle class="st7" cx="186.7" cy="556.1" r="6.7"/>
			<circle class="st7" cx="154.5" cy="568" r="6.7"/>
			<circle class="st7" cx="207.4" cy="579.5" r="6.7"/>
			<circle class="st7" cx="225.7" cy="552.1" r="6.7"/>
			<circle class="st7" cx="205.7" cy="531.9" r="6.7"/>
			<circle class="st7" cx="233.1" cy="521.6" r="6.7"/>
			<circle class="st7" cx="220.4" cy="498.9" r="6.7"/>
			<circle class="st7" cx="185.2" cy="511.2" r="6.7"/>
			<circle class="st7" cx="141" cy="505.7" r="6.7"/>
			<circle class="st7" cx="115.1" cy="514" r="6.7"/>
			<circle class="st7" cx="117.4" cy="569.6" r="6.7"/>
			<circle class="st7" cx="252" cy="571.6" r="6.7"/>
		</g>
	</g>
</g>
<g>
	<g>
		<g>
			<circle class="st8" cx="556.3" cy="365.9" r="119.1"/>
		</g>
		<path class="st9" d="M569.9,405.4c0,0,3.6,56.1,7.2,59.9c3.8,4,48,26.9,55.3,30.3c13.4,6.2,27.7,17.1,33,28.8
			c7.2,15.9,26.9,55.5,26.9,55.5h-45l-9.3-14.7l-6.7,14.7H437.2c0,0,13.6-41.9,20.5-55.4c6.3-12.3,16.6-27.9,30.4-35.5
			c7.9-4.3,42-20.9,43.2-24.9c1.1-4,5.4-58.8,5.4-58.8H569.9z"/>
		<g>
			<path class="st8" d="M533.4,178.4c7.8,14,12.2,30.1,12.2,47.2c0,53.8-43.7,97.5-97.5,97.5c-8.8,0-17.2-1.2-25.3-3.3
				c15,39.6,53.3,67.7,98.1,67.7c57.9,0,104.9-47,104.9-104.9C625.8,228.9,585.5,184.6,533.4,178.4z"/>
		</g>
		<path class="st10" d="M533.1,448.1c4.2,0.7,8.5,1.1,12.8,1.1c9.6,0,18.8-1.7,27.3-4.9c-1.9-17.3-3.3-38.9-3.3-38.9h-33.2
			C536.7,405.4,534.7,430.6,533.1,448.1z"/>
		<path class="st11" d="M464.2,343.8c2.9,2.8,4.8,6.8,4.8,11.2c0,8.5-6.9,15.5-15.5,15.5s-15.5-6.9-15.5-15.5s6.9-15.5,15.5-15.5"/>
		<circle class="st9" cx="530.1" cy="333.3" r="83.9"/>
		<circle class="st12" cx="524.3" cy="327.5" r="78.1"/>
		<circle class="st4" cx="558.7" cy="304.9" r="10.5"/>
		<circle class="st4" cx="480.4" cy="304.9" r="10.5"/>
		<path class="st5" d="M545.6,337.9c0,14.7-11.9,26.6-26.6,26.6c-14.7,0-26.6-11.9-26.6-26.6H545.6z"/>
		<g>
			<path class="st8" d="M545.6,225.6c0-17.1-4.4-33.2-12.2-47.2c-4.1-0.5-8.3-0.8-12.5-0.8c-57.9,0-104.9,47-104.9,104.9
				c0,13.1,2.4,25.7,6.8,37.2c8.1,2.2,16.6,3.3,25.3,3.3C502,323.1,545.6,279.5,545.6,225.6z"/>
		</g>
		<circle class="st12" cx="610.3" cy="326.8" r="21.6"/>
		<path class="st11" d="M623.5,343.8c2.9,2.8,4.8,6.8,4.8,11.2c0,8.5-6.9,15.5-15.5,15.5s-15.5-6.9-15.5-15.5s6.9-15.5,15.5-15.5"/>
		<path class="st13" d="M632.4,495.6c13.4,6.2,27.7,17.1,33,28.8c7.2,15.9,26.9,55.5,26.9,55.5h-45l-9.3-14.7l-6.7,14.7H437.2
			c0,0,13.6-41.9,20.5-55.4c6.3-12.3,16.6-27.9,30.4-35.5C496,484.8,625.1,492.2,632.4,495.6z"/>
	</g>
</g>
</svg>
