<svg xmlns="http://www.w3.org/2000/svg" width="131.06" height="110.08" viewBox="0 0 131.06 110.08"><title>Asset 5</title><g id="Layer_2" data-name="Layer 2"><g id="Layer_1-2" data-name="Layer 1"><path d="M6,89.58h10.2v20.5l25.71-20.5h83.19a6,6,0,0,0,6-6V6a6,6,0,0,0-6-6H6A6,6,0,0,0,0,6V83.6A6,6,0,0,0,6,89.58Z" style="fill:#efebf6"/><line x1="62.03" y1="23.11" x2="118.28" y2="23.11" style="fill:none;stroke:#380089;stroke-miterlimit:10;stroke-width:3.45026322985395px"/><line x1="62.03" y1="33.09" x2="118.28" y2="33.09" style="fill:none;stroke:#380089;stroke-miterlimit:10;stroke-width:3.45026322985395px"/><line x1="62.03" y1="43.08" x2="96.76" y2="43.08" style="fill:none;stroke:#380089;stroke-miterlimit:10;stroke-width:3.45026322985395px"/><circle cx="32.08" cy="33.54" r="19.92" style="fill:#380089"/><circle cx="32.08" cy="33.66" r="15.94" style="fill:#ff8eff"/><path d="M42.35,35.52a2,2,0,0,1-2-2v-5.7a2,2,0,0,1,4,0v5.7A2,2,0,0,1,42.35,35.52Z" style="fill:#380089"/><path d="M21.8,35.52a2,2,0,0,1-2-2v-5.7a2,2,0,1,1,4,0v5.7A2,2,0,0,1,21.8,35.52Z" style="fill:#380089"/><path d="M38.87,33.43a6.79,6.79,0,0,1-13.59,0V31.05H38.87Z" style="fill:#380089"/><path d="M36.26,33.57a4.18,4.18,0,0,1-8.37,0C28,33.55,36.29,33.55,36.26,33.57Z" style="fill:#fff"/></g></g></svg>
