<svg xmlns="http://www.w3.org/2000/svg" width="353.09" height="433.47" viewBox="0 0 353.09 433.47"><title>Asset 2</title><g id="Layer_2" data-name="Layer 2"><g id="Layer_1-2" data-name="Layer 1"><rect x="52.44" y="35.47" width="146.04" height="152.16" transform="translate(7.83 -8.23) rotate(3.88)" style="fill:#d6d6d6"/><rect x="70.04" y="49.95" width="146.04" height="152.16" transform="translate(-2.48 2.87) rotate(-1.14)" style="fill:#e2e2e2"/><rect x="11.28" y="20.99" width="146.04" height="152.16" transform="translate(-14.5 14.8) rotate(-9.25)" style="fill:#eee"/><path d="M108.45,0a83.84,83.84,0,1,0,85.49,82.15A83.84,83.84,0,0,0,108.45,0Zm3.06,154.2a70.39,70.39,0,1,1,69-71.78A70.39,70.39,0,0,1,111.51,154.21Z" style="fill:#f0cfab"/><path d="M108.71,13.46a70.39,70.39,0,1,0,71.78,69A70.39,70.39,0,0,0,108.71,13.46Z" style="fill:#42210b"/><line x1="82.26" y1="34.89" x2="78.22" y2="49.25" style="fill:none;stroke:#00d1bd;stroke-linecap:round;stroke-miterlimit:10;stroke-width:3.42055855819788px"/><line x1="66.96" y1="116.7" x2="52.87" y2="111.81" style="fill:none;stroke:#00d1bd;stroke-linecap:round;stroke-miterlimit:10;stroke-width:3.42055855819788px"/><line x1="158.22" y1="48.38" x2="154.17" y2="62.73" style="fill:none;stroke:#00d1bd;stroke-linecap:round;stroke-miterlimit:10;stroke-width:3.42055855819788px"/><line x1="96.65" y1="35.15" x2="110.53" y2="41.47" style="fill:none;stroke:#7f50ff;stroke-linecap:round;stroke-miterlimit:10;stroke-width:3.42055855819788px"/><line x1="114.81" y1="126.11" x2="122.05" y2="139.15" style="fill:none;stroke:#7f50ff;stroke-linecap:round;stroke-miterlimit:10;stroke-width:3.42055855819788px"/><line x1="67.2" y1="78.86" x2="54.35" y2="93.02" style="fill:none;stroke:#7f50ff;stroke-linecap:round;stroke-miterlimit:10;stroke-width:3.42055855819788px"/><line x1="55.41" y1="70.14" x2="68.9" y2="63.79" style="fill:none;stroke:#ecde21;stroke-linecap:round;stroke-miterlimit:10;stroke-width:3.42055855819788px"/><line x1="89.15" y1="128.09" x2="74.84" y2="132.31" style="fill:none;stroke:#f0f;stroke-linecap:round;stroke-miterlimit:10;stroke-width:3.42055855819788px"/><line x1="155.66" y1="36.14" x2="141.36" y2="40.36" style="fill:none;stroke:#f0f;stroke-linecap:round;stroke-miterlimit:10;stroke-width:3.42055855819788px"/><line x1="116.44" y1="21.41" x2="125.76" y2="33.05" style="fill:none;stroke:#ecde21;stroke-linecap:round;stroke-miterlimit:10;stroke-width:3.42055855819788px"/><line x1="86.67" y1="102.37" x2="71.76" y2="102.66" style="fill:none;stroke:#49a8f6;stroke-linecap:round;stroke-miterlimit:10;stroke-width:3.42055855819788px"/><line x1="150.37" y1="118.59" x2="135.46" y2="118.89" style="fill:none;stroke:#49a8f6;stroke-linecap:round;stroke-miterlimit:10;stroke-width:3.42055855819788px"/><circle cx="31.7" cy="89.51" r="10.63" transform="translate(-1.77 0.65) rotate(-1.14)" style="fill:#eee"/><circle cx="41.28" cy="99.09" r="10.63" transform="translate(-1.96 0.84) rotate(-1.14)" style="fill:#eee"/><circle cx="44.07" cy="110.69" r="10.63" transform="translate(-2.19 0.9) rotate(-1.14)" style="fill:#eee"/><circle cx="41.77" cy="123.56" r="10.63" transform="translate(-2.45 0.85) rotate(-1.14)" style="fill:#eee"/><ellipse cx="30.65" cy="111.41" rx="10.63" ry="21.27" transform="translate(-2.21 0.63) rotate(-1.14)" style="fill:#eee"/><path d="M43.33,164.07c5.69,0,5.7-8.85,0-8.85s-5.7,8.85,0,8.85Z" style="fill:#f0cfab"/><path d="M5.77,68.87c5.69,0,5.7-8.85,0-8.85s-5.7,8.85,0,8.85Z" style="fill:#33261e"/><path d="M30.6,139.45a11.11,11.11,0,0,1,1.23.36c.06,0,.64.22.15,0a5.47,5.47,0,0,1,.66.32,2.21,2.21,0,0,0,2.23-3.82,13.51,13.51,0,0,0-3.09-1.17,2.21,2.21,0,1,0-1.18,4.27Z" style="fill:#f0cfab"/><path d="M7.84,52.86a11.11,11.11,0,0,1,1.23.36c.06,0,.64.22.15,0a5.47,5.47,0,0,1,.66.32,2.21,2.21,0,0,0,2.23-3.82A13.51,13.51,0,0,0,9,48.59a2.21,2.21,0,0,0-1.18,4.27Z" style="fill:#f0cfab"/><path d="M6.48,106.69a11.11,11.11,0,0,1,1.23.36c.06,0,.64.22.15,0a5.47,5.47,0,0,1,.66.32,2.21,2.21,0,1,0,2.23-3.82,13.51,13.51,0,0,0-3.09-1.17,2.21,2.21,0,1,0-1.18,4.27Z" style="fill:#42210b"/><rect x="157.49" y="213.64" width="146.04" height="152.16" transform="translate(163.85 653.9) rotate(-131.12)" style="fill:#d6d6d6"/><rect x="155.28" y="190.96" width="146.04" height="152.16" transform="translate(207.88 617.77) rotate(-136.14)" style="fill:#e2e2e2"/><rect x="176.36" y="252.98" width="146.04" height="152.16" transform="matrix(-0.81, -0.58, 0.58, -0.81, 259.48, 741.82)" style="fill:#eee"/><path d="M163.67,380.61a83.84,83.84,0,1,0-2.36-118.54A83.84,83.84,0,0,0,163.67,380.61Zm106.87-111.2a70.39,70.39,0,1,1-99.53,2A70.39,70.39,0,0,1,270.54,269.41Z" style="fill:#f0cfab"/><path d="M173,370.92a70.39,70.39,0,1,0-2-99.53A70.39,70.39,0,0,0,173,370.92Z" style="fill:#42210b"/><line x1="206.85" y1="374.47" x2="219.85" y2="367.18" style="fill:none;stroke:#00d1bd;stroke-linecap:round;stroke-miterlimit:10;stroke-width:3.42055855819788px"/><line x1="275.51" y1="327.45" x2="282.02" y2="340.86" style="fill:none;stroke:#00d1bd;stroke-linecap:round;stroke-miterlimit:10;stroke-width:3.42055855819788px"/><line x1="162.67" y1="311.23" x2="175.68" y2="303.94" style="fill:none;stroke:#00d1bd;stroke-linecap:round;stroke-miterlimit:10;stroke-width:3.42055855819788px"/><line x1="196.86" y1="364.11" x2="191.51" y2="349.83" style="fill:none;stroke:#7f50ff;stroke-linecap:round;stroke-miterlimit:10;stroke-width:3.42055855819788px"/><line x1="248.33" y1="286.96" x2="252.43" y2="272.62" style="fill:none;stroke:#7f50ff;stroke-linecap:round;stroke-miterlimit:10;stroke-width:3.42055855819788px"/><line x1="248.59" y1="354.03" x2="267.69" y2="353.11" style="fill:none;stroke:#7f50ff;stroke-linecap:round;stroke-miterlimit:10;stroke-width:3.42055855819788px"/><line x1="250.76" y1="368.54" x2="236.73" y2="363.49" style="fill:none;stroke:#ecde21;stroke-linecap:round;stroke-miterlimit:10;stroke-width:3.42055855819788px"/><line x1="267.88" y1="303.7" x2="280.98" y2="310.83" style="fill:none;stroke:#f0f;stroke-linecap:round;stroke-miterlimit:10;stroke-width:3.42055855819788px"/><line x1="155.83" y1="321.69" x2="168.93" y2="328.82" style="fill:none;stroke:#f0f;stroke-linecap:round;stroke-miterlimit:10;stroke-width:3.42055855819788px"/><line x1="173.14" y1="359.84" x2="174.78" y2="345.01" style="fill:none;stroke:#ecde21;stroke-linecap:round;stroke-miterlimit:10;stroke-width:3.42055855819788px"/><line x1="251.44" y1="323.64" x2="262.19" y2="333.98" style="fill:none;stroke:#49a8f6;stroke-linecap:round;stroke-miterlimit:10;stroke-width:3.42055855819788px"/><line x1="217.87" y1="267.13" x2="228.62" y2="277.46" style="fill:none;stroke:#49a8f6;stroke-linecap:round;stroke-miterlimit:10;stroke-width:3.42055855819788px"/><circle cx="281.22" cy="371.61" r="10.63" transform="translate(-181.58 316.88) rotate(-46.14)" style="fill:#eee"/><circle cx="281.22" cy="358.05" r="10.63" transform="translate(-171.8 312.72) rotate(-46.14)" style="fill:#eee"/><circle cx="287.45" cy="347.88" r="10.63" transform="translate(-162.56 314.08) rotate(-46.14)" style="fill:#eee"/><circle cx="298.18" cy="340.4" r="10.63" transform="translate(-153.87 319.53) rotate(-46.14)" style="fill:#eee"/><ellipse cx="297.45" cy="356.86" rx="21.27" ry="10.63" transform="translate(-165.96 324.05) rotate(-46.14)" style="fill:#eee"/><path d="M322.59,318.21c5.69,0,5.7-8.85,0-8.85s-5.7,8.85,0,8.85Z" style="fill:#f0cfab"/><path d="M281.83,412.08c5.69,0,5.7-8.85,0-8.85s-5.7,8.85,0,8.85Z" style="fill:#33261e"/><path d="M317.3,337c-.23-.36-.42-.74-.61-1.12s.14.42-.07-.14c-.09-.23-.17-.46-.24-.69a2.21,2.21,0,0,0-4.27,1.18,13.53,13.53,0,0,0,1.37,3A2.21,2.21,0,0,0,317.3,337Z" style="fill:#f0cfab"/><path d="M272.16,414.37c-.23-.36-.42-.74-.61-1.12s.14.42-.07-.14c-.09-.23-.17-.46-.24-.69a2.21,2.21,0,0,0-4.27,1.18,13.53,13.53,0,0,0,1.37,3,2.21,2.21,0,0,0,3.82-2.23Z" style="fill:#f0cfab"/><path d="M311.19,377.26c-.23-.36-.42-.74-.61-1.12s.14.42-.07-.14c-.09-.23-.17-.46-.24-.69a2.21,2.21,0,1,0-4.27,1.18,13.53,13.53,0,0,0,1.37,3,2.21,2.21,0,1,0,3.82-2.23Z" style="fill:#42210b"/></g></g></svg>
