<svg xmlns="http://www.w3.org/2000/svg" width="316.71" height="653.03" viewBox="0 0 316.71 653.03"><title>Asset 6</title><g id="Layer_2" data-name="Layer 2"><g id="Layer_1-2" data-name="Layer 1"><circle cx="212.63" cy="548.94" r="104.08" style="fill:#f5efb9"/><path d="M210.15,598.57a49.63,49.63,0,1,1,49.63-49.62A49.68,49.68,0,0,1,210.15,598.57Z" style="fill:#39a54a"/><path d="M210.15,503.37a45.57,45.57,0,1,1-45.57,45.57,45.57,45.57,0,0,1,45.57-45.57m0-8.11a53.68,53.68,0,1,0,53.68,53.68,53.74,53.74,0,0,0-53.68-53.68Z" style="fill:#ecde21"/><path d="M177.93,581.17c-12.32-41.41,11.86-46.93,64.45-64.45a45.57,45.57,0,0,1-64.45,64.45Z" style="fill:#80b63f"/><rect x="28.65" y="205.85" width="146.04" height="152.16" transform="translate(398 326.72) rotate(118.42)" style="fill:#d6d6d6"/><rect x="73.44" y="241.36" width="146.04" height="152.16" transform="translate(495.96 309.15) rotate(113.41)" style="fill:#e2e2e2"/><rect x="58.91" y="174.42" width="146.04" height="152.16" transform="translate(408.37 189.35) rotate(105.3)" style="fill:#eee"/><path d="M210.18,312.79A83.84,83.84,0,1,0,99.94,356.42,83.84,83.84,0,0,0,210.18,312.79ZM68.65,251.52a70.39,70.39,0,1,1,36.63,92.56A70.39,70.39,0,0,1,68.65,251.52Z" style="fill:#f0cfab"/><path d="M197.84,307.45a70.39,70.39,0,1,0-92.56,36.63A70.39,70.39,0,0,0,197.84,307.45Zm-85.08-36.83A22.32,22.32,0,1,1,124.38,300,22.32,22.32,0,0,1,112.76,270.62Z" style="fill:#ff9eff"/><line x1="189.33" y1="274.49" x2="177.96" y2="264.85" style="fill:none;stroke:#00d1bd;stroke-linecap:round;stroke-miterlimit:10;stroke-width:3.42055855819788px"/><line x1="121.28" y1="226.58" x2="131.58" y2="215.79" style="fill:none;stroke:#00d1bd;stroke-linecap:round;stroke-miterlimit:10;stroke-width:3.42055855819788px"/><line x1="145.52" y1="337.97" x2="134.14" y2="328.33" style="fill:none;stroke:#00d1bd;stroke-linecap:round;stroke-miterlimit:10;stroke-width:3.42055855819788px"/><line x1="183.12" y1="287.46" x2="171.61" y2="297.46" style="fill:none;stroke:#7f50ff;stroke-linecap:round;stroke-miterlimit:10;stroke-width:3.42055855819788px"/><line x1="92.84" y1="266.19" x2="77.98" y2="267.36" style="fill:none;stroke:#7f50ff;stroke-linecap:round;stroke-miterlimit:10;stroke-width:3.42055855819788px"/><line x1="155.6" y1="242.52" x2="148.06" y2="224.95" style="fill:none;stroke:#7f50ff;stroke-linecap:round;stroke-miterlimit:10;stroke-width:3.42055855819788px"/><line x1="168.44" y1="235.41" x2="168.6" y2="250.32" style="fill:none;stroke:#ecde21;stroke-linecap:round;stroke-miterlimit:10;stroke-width:3.42055855819788px"/><line x1="101.7" y1="242.03" x2="103.8" y2="227.26" style="fill:none;stroke:#f0f;stroke-linecap:round;stroke-miterlimit:10;stroke-width:3.42055855819788px"/><line x1="157.71" y1="340.73" x2="159.82" y2="325.97" style="fill:none;stroke:#f0f;stroke-linecap:round;stroke-miterlimit:10;stroke-width:3.42055855819788px"/><line x1="187.4" y1="311.18" x2="172.94" y2="314.82" style="fill:none;stroke:#ecde21;stroke-linecap:round;stroke-miterlimit:10;stroke-width:3.42055855819788px"/><line x1="126.13" y1="250.46" x2="132.06" y2="236.78" style="fill:none;stroke:#49a8f6;stroke-linecap:round;stroke-miterlimit:10;stroke-width:3.42055855819788px"/><line x1="84.91" y1="301.66" x2="90.83" y2="287.98" style="fill:none;stroke:#49a8f6;stroke-linecap:round;stroke-miterlimit:10;stroke-width:3.42055855819788px"/><circle cx="160.67" cy="205.8" r="10.63" transform="translate(-92.03 271.48) rotate(-66.59)" style="fill:#eee"/><circle cx="147.97" cy="210.54" r="10.63" transform="translate(-104.03 262.68) rotate(-66.59)" style="fill:#eee"/><circle cx="136.26" cy="208.26" r="10.63" transform="translate(-108.99 250.56) rotate(-66.59)" style="fill:#eee"/><circle cx="125.5" cy="200.81" r="10.63" transform="translate(-108.64 236.21) rotate(-66.59)" style="fill:#eee"/><ellipse cx="141.17" cy="195.75" rx="10.63" ry="21.27" transform="translate(-94.55 247.54) rotate(-66.59)" style="fill:#eee"/><path d="M92,191.67c5.69,0,5.7-8.85,0-8.85s-5.7,8.85,0,8.85Z" style="fill:#f0cfab"/><path d="M115.82,183.91a11,11,0,0,1-1.92,1.94,2.22,2.22,0,0,0,0,3.13,2.28,2.28,0,0,0,3.13,0A11,11,0,0,0,119,187a2.42,2.42,0,0,0,.65-1.56,2.21,2.21,0,0,0-3.78-1.56Z" style="fill:#f0cfab"/><path d="M204,199.18a11,11,0,0,1-1.92,1.94,2.22,2.22,0,0,0,0,3.13,2.28,2.28,0,0,0,3.13,0,11,11,0,0,0,1.92-1.94,2.42,2.42,0,0,0,.65-1.56,2.21,2.21,0,0,0-3.78-1.56Z" style="fill:#f0cfab"/><path d="M53.44,174.93c-.34.45.12-.14.19-.22l.41-.44a11.13,11.13,0,0,1,1-.85,2.22,2.22,0,0,0,0-3.13,2.28,2.28,0,0,0-3.13,0,13.21,13.21,0,0,0-2.25,2.4,2.22,2.22,0,0,0-.22,1.7,2.26,2.26,0,0,0,1,1.32,2.28,2.28,0,0,0,3-.79Z" style="fill:#ff9eff"/><line x1="80.37" y1="162.95" x2="76.06" y2="154.95" style="fill:none;stroke:#7f50ff;stroke-linecap:round;stroke-miterlimit:10;stroke-width:3.42055855819788px"/><path d="M289.61,0c7.18,1.51,9.78,9.28,9.78,9.28C262.51,59.8,191.15,119,191.15,119l-6.23-5.91S269.2,36.89,289.61,0Z" style="fill:#8ea1ae"/><path d="M150.81,105.11h37a0,0,0,0,1,0,0v47.28a14,14,0,0,1-14,14h-9.14a14,14,0,0,1-14-14V105.11a0,0,0,0,1,0,0Z" transform="translate(198.67 350.75) rotate(-136.48)" style="fill:#a4b6bf"/><line x1="152.91" y1="168.64" x2="179.59" y2="140.54" style="fill:none;stroke:#fff;stroke-miterlimit:10;stroke-width:4.42367899417877px"/><line x1="145.12" y1="161.23" x2="171.8" y2="133.14" style="fill:none;stroke:#fff;stroke-miterlimit:10;stroke-width:4.42367899417877px"/><line x1="137.32" y1="153.83" x2="164" y2="125.73" style="fill:none;stroke:#fff;stroke-miterlimit:10;stroke-width:4.42367899417877px"/></g></g></svg>
